<svg width="92" height="118" viewBox="0 0 92 118" fill="none" xmlns="http://www.w3.org/2000/svg">
<mask id="mask0_70460_314" style="mask-type:alpha" maskUnits="userSpaceOnUse" x="0" y="0" width="92" height="118">
<path d="M0 0L-4.70772e-06 117.292L91.135 117.292L91.135 4.33841e-06L0 0Z" fill="white"/>
</mask>
<g mask="url(#mask0_70460_314)">
<path fill-rule="evenodd" clip-rule="evenodd" d="M58.0817 9.4191C60.4059 11.0744 62.5728 12.8968 64.7766 14.6786C62.502 12.3798 60.2918 9.82563 58.9261 7.13935C57.4718 4.27966 55.4104 1.88431 54.2338 -1.12846C53.5126 -2.97564 53.6798 -4.86981 53.6054 -6.75955C52.1242 -5.54567 50.6947 -4.27653 49.3077 -3.01375C47.8385 -1.67601 46.5301 -0.216947 45.1325 1.17351C49.8503 3.34274 53.9185 6.45333 58.0817 9.4191ZM0.850054 113.543C1.39551 110.419 1.57544 107.262 2.15773 104.139C3.33789 97.8153 4.38276 91.4423 5.78677 85.1538C6.42998 82.2738 7.17662 79.3951 7.72916 76.4998C8.36741 73.1586 8.36033 69.7984 9.17709 66.4763C10.7554 60.055 12.9846 53.7944 15.4895 47.6171C17.4191 42.8581 19.4841 38.0528 21.792 33.4279C24.311 28.3806 27.6701 23.7811 30.3471 18.8055C31.5882 16.4972 32.412 14.0466 33.5362 11.6963C35.4963 7.5986 38.2201 3.61905 41.0749 -0.0206698C45.3861 -5.51709 50.8597 -10.1007 56.3894 -14.5872L65.9192 -14.6564C64.314 -14.0231 62.9362 -12.9687 61.4954 -12.0864C60.1941 -11.2898 58.8411 -10.5619 57.5724 -9.72277C57.0007 -9.34419 56.446 -8.93829 55.8921 -8.53113C57.5065 -7.15528 58.7377 -5.4542 60.2713 -3.78489C63.148 -0.653331 66.4867 2.09139 69.6418 4.98474C70.958 6.19099 72.0999 7.53572 73.1405 8.93952C75.0319 11.4924 77.213 13.9697 78.5341 16.8059C79.9098 19.7583 81.5447 22.5964 82.9622 25.5291C83.3058 26.238 83.6798 26.9736 84.0467 27.7212C85.205 28.7877 86.2845 29.9203 87.2529 31.1564C88.1766 32.336 89.0515 33.5683 89.8541 34.8171C90.3195 35.5406 91.1263 36.5334 91.135 37.4208C91.1511 39.0996 89.6833 38.4797 88.5428 37.9156C86.2647 36.7881 83.8236 35.8995 81.5738 34.7142C78.0453 32.8543 75.0574 30.5841 71.9192 28.2643C68.4992 25.7362 64.7001 23.614 61.1044 21.2949C58.8574 19.8453 56.8859 18.0363 54.7006 16.4972C53.2349 15.465 51.7041 14.4594 50.5608 13.1287C49.6385 12.0552 48.5072 11.204 47.536 10.1667C46.5832 9.1485 46.3403 7.99433 45.6645 6.84334C44.9568 5.63963 44.2243 4.3273 43.3084 3.2411C43.2737 3.19981 43.2453 3.16678 43.2113 3.12677C42.5483 3.96015 42.0545 4.86659 41.3872 5.75651C40.6194 6.77982 39.8182 7.79932 39.0007 8.80866C39.6666 8.85821 40.3969 8.92872 40.8786 9.21202C41.7953 9.75131 42.5447 11.2809 43.2078 12.0355C46.2567 15.5056 49.6647 18.7312 52.7653 22.1702C55.3955 25.087 58.064 27.9613 60.4711 31.0332C62.621 33.7766 63.5858 36.8142 65.2463 39.7793C66.5072 42.0298 68.0812 44.0256 69.1941 46.3568C70.0321 48.11 70.8808 49.86 71.7414 51.6043C72.6035 53.3504 73.3743 55.1207 74.1542 56.8968C74.4956 57.6743 75.3195 58.8665 75.3414 59.5983C74.4708 59.5894 73.7773 58.54 73.2531 58.049C71.0175 55.956 68.7832 53.9158 66.8564 51.5846C64.9126 49.2324 62.8222 47.0587 60.3669 45.1163C58.4947 43.635 56.5424 42.3443 55.0385 40.5352C52.8411 37.8921 50.2371 35.7496 47.7393 33.3879C46.8234 32.5215 46.0187 31.5845 45.0602 30.7556C44.1223 29.9444 43.9452 29.3188 43.4189 28.3094C42.8968 27.3102 42.2692 26.4534 41.9306 25.3665C41.5969 24.2949 40.9296 23.4076 40.6562 22.3264C40.3374 21.0656 40.348 19.7786 39.9627 18.5279C39.5957 17.3369 39.3563 16.2812 39.2054 15.0559C38.9979 13.3631 38.332 11.878 37.7532 10.3255C37.2064 10.9811 36.6567 11.6321 36.1034 12.2731C35.4312 13.0518 35.1053 13.8166 34.591 14.6392C33.3485 16.6268 32.0564 18.3717 31.1214 20.5161C30.5008 21.9383 29.8845 23.3618 29.2619 24.7834C32.1584 25.794 35.0848 26.7551 37.9573 27.8159C40.3658 28.7058 42.097 30.1382 44.1896 31.4651C46.3027 32.8041 48.51 34.1253 50.3178 35.8144C52.579 37.9283 54.4073 40.3662 56.2902 42.74C58.8064 45.9116 61.8071 48.7363 63.5986 52.3182C65.582 56.2844 66.6623 60.1573 67.6477 64.3922C67.9197 65.5629 69.4314 68.4727 68.1542 69.4681C67.6796 69.3334 67.7256 68.9726 67.4118 68.6785C66.7438 68.0497 65.9695 67.499 65.2399 66.9139C63.4937 65.5127 61.9027 63.9939 60.3676 62.4065C56.6663 58.5782 53.0168 54.7206 49.2404 50.9506C44.2704 45.9884 37.9884 41.8894 34.0194 36.2063C32.4949 34.0243 30.7105 31.9167 29.3122 29.6776C28.8425 28.9256 28.4543 28.2872 28.268 27.6412C28.2694 27.9982 28.3587 28.3679 28.5797 28.8042C29.7386 31.0961 31.081 33.1357 32.5502 35.2363C33.3089 36.3212 33.2741 37.5472 34.1398 38.6308C34.6966 39.3277 35.5636 39.8803 36.0538 40.5682C36.6999 41.4747 37.0746 42.4472 37.8142 43.3364C38.4765 44.1323 39.4186 44.96 39.9613 45.7686C41.0692 47.4214 42.2593 48.9059 42.9244 50.7442C43.4146 52.0997 44.3561 53.7144 45.114 54.9461C45.7891 56.0437 46.076 57.3363 46.7299 58.467C47.3044 59.4605 47.7691 60.069 48.0673 61.1774C48.3591 62.263 48.9032 63.2132 49.2595 64.2772C49.5641 65.1887 49.6789 66.1669 49.8552 67.1032C50.1032 68.4124 50.7237 69.51 51.0106 70.7804C51.9414 74.9042 52.1894 79.4033 52.1051 83.609C52.0845 84.6304 52.5081 86.4922 51.9074 87.4145C51.6942 87.7416 51.1983 87.7588 50.9688 88.1507C50.3844 87.4971 50.1166 86.4687 49.6696 85.7363C48.7254 84.1896 47.7131 82.6587 46.6626 81.1692C43.7015 76.9718 41.0699 72.5171 38.5898 68.077C36.8097 64.8908 35.7521 61.4607 34.3318 58.1424C32.7712 54.4957 30.4512 51.2911 28.5152 47.8114C27.0836 45.2389 26.2208 42.5323 24.9627 39.9044C24.8012 39.5665 24.4817 39.12 24.272 38.6588C24.1799 40.1109 23.7995 41.4994 24.165 43.0265C24.5511 44.6354 24.6425 45.9204 24.6652 47.5478C24.6914 49.4439 25.6491 51.1132 26.4779 52.8143C28.1029 56.1485 29.4574 59.3785 30.5575 62.8804C31.2475 65.0776 32.0692 67.161 32.1655 69.463C32.2548 71.6005 32.3256 73.2653 32.8838 75.3386C33.8961 79.0952 32.9802 82.6333 33.1431 86.4446C33.3372 90.9774 33.7218 95.183 32.7535 99.679C32.2031 102.235 31.8177 104.885 31.188 107.418C31.064 107.915 30.5547 110.04 29.8966 110.216C28.3339 108.835 27.9705 106.594 27.588 104.766C27.0071 101.987 26.2434 99.3043 25.4784 96.5678C24.8423 94.2938 24.0907 92.176 23.1811 89.9852C22.0994 87.3777 21.7906 84.5453 21.0191 81.8603C19.9488 78.1335 20.2137 74.8521 20.4978 71.0053C20.7627 67.4107 20.1726 63.7614 20.1145 60.1604C20.055 56.4661 19.4557 52.8448 19.1674 49.1613C19.081 48.0547 18.8777 46.9171 19.1625 45.8518C18.826 46.8313 18.6638 47.8616 18.4038 48.8627C17.7266 51.4645 17.6642 54.1482 16.8956 56.7373C16.4302 58.3031 15.7884 59.8581 15.6241 61.4798C15.5199 62.5139 15.6446 63.5531 15.4626 64.584C15.1133 66.5544 14.4885 67.9614 14.796 70.0074C15.1806 72.559 14.915 75.2281 15.063 77.8185C15.2104 80.4025 14.7011 82.8232 14.3745 85.3622C14.1499 87.1121 14.0168 88.7148 13.4869 90.4317C13.1547 91.5071 13.3424 92.5603 13.2815 93.6636C13.1525 95.9866 11.2952 97.983 10.2517 99.9776C9.80897 100.824 9.59858 101.764 9.16221 102.612C8.66068 103.587 7.77024 104.319 7.04415 105.159C5.69114 106.724 5.27886 108.555 4.31617 110.293C3.8118 111.205 3.14238 112.021 2.69468 112.962C2.37591 113.633 2.20094 114.395 1.83471 115.048C1.56694 115.527 0.52774 117.329 -4.89304e-06 117.292C0.106961 116.054 0.635414 114.775 0.850054 113.543Z" fill="#4C785B"/>
</g>
</svg>
