<svg width="92" height="118" viewBox="0 0 92 118" fill="none" xmlns="http://www.w3.org/2000/svg">
<mask id="mask0_70460_323" style="mask-type:alpha" maskUnits="userSpaceOnUse" x="0" y="0" width="92" height="118">
<path d="M91.135 0L91.135 117.292L5.53017e-05 117.292L5.0594e-05 4.33841e-06L91.135 0Z" fill="white"/>
</mask>
<g mask="url(#mask0_70460_323)">
<path fill-rule="evenodd" clip-rule="evenodd" d="M33.0533 9.4191C30.7291 11.0744 28.5622 12.8968 26.3584 14.6786C28.633 12.3798 30.8432 9.82563 32.2089 7.13935C33.6632 4.27966 35.7246 1.88431 36.9012 -1.12846C37.6224 -2.97564 37.4552 -4.86981 37.5296 -6.75955C39.0108 -5.54567 40.4403 -4.27653 41.8273 -3.01375C43.2965 -1.67601 44.6049 -0.216947 46.0025 1.17351C41.2847 3.34274 37.2165 6.45333 33.0533 9.4191ZM90.285 113.543C89.7395 110.419 89.5596 107.262 88.9773 104.139C87.7971 97.8153 86.7523 91.4423 85.3482 85.1538C84.705 82.2738 83.9584 79.3951 83.4059 76.4998C82.7676 73.1586 82.7747 69.7984 81.9579 66.4763C80.3796 60.055 78.1504 53.7944 75.6455 47.6171C73.7159 42.8581 71.651 38.0528 69.343 33.4279C66.824 28.3806 63.4649 23.7811 60.7879 18.8055C59.5468 16.4972 58.723 14.0466 57.5988 11.6963C55.6387 7.5986 52.9149 3.61905 50.0602 -0.0206698C45.7489 -5.51709 40.2753 -10.1007 34.7456 -14.5872L25.2158 -14.6564C26.821 -14.0231 28.1988 -12.9687 29.6396 -12.0864C30.9409 -11.2898 32.2939 -10.5619 33.5626 -9.72277C34.1343 -9.34419 34.689 -8.93829 35.2429 -8.53113C33.6285 -7.15528 32.3974 -5.4542 30.8637 -3.78489C27.987 -0.653331 24.6484 2.09139 21.4932 4.98474C20.177 6.19099 19.0351 7.53572 17.9945 8.93952C16.1031 11.4924 13.922 13.9697 12.6009 16.8059C11.2252 19.7583 9.59027 22.5964 8.1728 25.5291C7.82923 26.238 7.4552 26.9736 7.08826 27.7212C5.93005 28.7877 4.85048 29.9203 3.88213 31.1564C2.9584 32.336 2.08354 33.5683 1.28094 34.8171C0.815535 35.5406 0.00868767 36.5334 5.25252e-05 37.4208C-0.0161056 39.0996 1.45167 38.4797 2.59216 37.9156C4.87032 36.7881 7.3114 35.8995 9.56123 34.7142C13.0897 32.8543 16.0776 30.5841 19.2158 28.2643C22.6358 25.7362 26.4349 23.614 30.0306 21.2949C32.2776 19.8453 34.2491 18.0363 36.4344 16.4972C37.9001 15.465 39.4309 14.4594 40.5742 13.1287C41.4965 12.0552 42.6278 11.204 43.599 10.1667C44.5518 9.1485 44.7948 7.99433 45.4706 6.84334C46.1782 5.63963 46.9107 4.3273 47.8266 3.2411C47.8613 3.19981 47.8897 3.16678 47.9237 3.12677C48.5867 3.96015 49.0805 4.86659 49.7478 5.75651C50.5157 6.77982 51.3168 7.79932 52.1343 8.80866C51.4684 8.85821 50.7381 8.92872 50.2564 9.21202C49.3397 9.75131 48.5903 11.2809 47.9272 12.0355C44.8783 15.5056 41.4703 18.7312 38.3697 22.1702C35.7395 25.087 33.071 27.9613 30.6639 31.0332C28.514 33.7766 27.5492 36.8142 25.8887 39.7793C24.6278 42.0298 23.0538 44.0256 21.9409 46.3568C21.1029 48.11 20.2543 49.86 19.3936 51.6043C18.5315 53.3504 17.7608 55.1207 16.9808 56.8968C16.6394 57.6743 15.8155 58.8665 15.7936 59.5983C16.6642 59.5894 17.3577 58.54 17.8819 58.049C20.1175 55.956 22.3518 53.9158 24.2786 51.5846C26.2224 49.2324 28.3128 47.0587 30.7681 45.1163C32.6403 43.635 34.5926 42.3443 36.0965 40.5352C38.2939 37.8921 40.8979 35.7496 43.3957 33.3879C44.3116 32.5215 45.1164 31.5845 46.0748 30.7556C47.0127 29.9444 47.1898 29.3188 47.7161 28.3094C48.2382 27.3102 48.8658 26.4534 49.2044 25.3665C49.5381 24.2949 50.2054 23.4076 50.4788 22.3264C50.7976 21.0656 50.787 19.7786 51.1723 18.5279C51.5393 17.3369 51.7787 16.2812 51.9296 15.0559C52.1371 13.3631 52.803 11.878 53.3818 10.3255C53.9286 10.9811 54.4783 11.6321 55.0316 12.2731C55.7038 13.0518 56.0297 13.8166 56.544 14.6392C57.7865 16.6268 59.0786 18.3717 60.0136 20.5161C60.6342 21.9383 61.2505 23.3618 61.8731 24.7834C58.9766 25.794 56.0502 26.7551 53.1778 27.8159C50.7693 28.7058 49.038 30.1382 46.9454 31.4651C44.8323 32.8041 42.625 34.1253 40.8172 35.8144C38.556 37.9283 36.7277 40.3662 34.8448 42.74C32.3286 45.9116 29.3279 48.7363 27.5364 52.3182C25.553 56.2844 24.4727 60.1573 23.4873 64.3922C23.2153 65.5629 21.7036 68.4727 22.9808 69.4681C23.4554 69.3334 23.4094 68.9726 23.7232 68.6785C24.3912 68.0497 25.1655 67.499 25.8951 66.9139C27.6413 65.5127 29.2323 63.9939 30.7674 62.4065C34.4687 58.5782 38.1182 54.7206 41.8946 50.9506C46.8646 45.9884 53.1466 41.8894 57.1157 36.2063C58.6401 34.0243 60.4245 31.9167 61.8229 29.6776C62.2925 28.9256 62.6807 28.2872 62.867 27.6412C62.8656 27.9982 62.7763 28.3679 62.5553 28.8042C61.3964 31.0961 60.054 33.1357 58.5848 35.2363C57.8262 36.3212 57.8609 37.5472 56.9952 38.6308C56.4384 39.3277 55.5714 39.8803 55.0812 40.5682C54.4351 41.4747 54.0604 42.4472 53.3208 43.3364C52.6585 44.1323 51.7164 44.96 51.1737 45.7686C50.0658 47.4214 48.8757 48.9059 48.2106 50.7442C47.7204 52.0997 46.7789 53.7144 46.021 54.9461C45.3459 56.0437 45.059 57.3363 44.4051 58.467C43.8306 59.4605 43.3659 60.069 43.0677 61.1774C42.7759 62.263 42.2318 63.2132 41.8755 64.2772C41.5709 65.1887 41.4562 66.1669 41.2798 67.1032C41.0318 68.4124 40.4113 69.51 40.1244 70.7804C39.1936 74.9042 38.9456 79.4033 39.0299 83.609C39.0505 84.6304 38.6269 86.4922 39.2276 87.4145C39.4408 87.7416 39.9367 87.7588 40.1662 88.1507C40.7506 87.4971 41.0184 86.4687 41.4654 85.7363C42.4096 84.1896 43.4219 82.6587 44.4724 81.1692C47.4335 76.9718 50.0651 72.5171 52.5452 68.077C54.3253 64.8908 55.3829 61.4607 56.8033 58.1424C58.3638 54.4957 60.6838 51.2911 62.6198 47.8114C64.0514 45.2389 64.9142 42.5323 66.1723 39.9044C66.3338 39.5665 66.6533 39.12 66.863 38.6588C66.9551 40.1109 67.3355 41.4994 66.97 43.0265C66.5839 44.6354 66.4925 45.9204 66.4698 47.5478C66.4436 49.4439 65.4859 51.1132 64.6571 52.8143C63.0321 56.1485 61.6776 59.3785 60.5775 62.8804C59.8876 65.0776 59.0658 67.161 58.9695 69.463C58.8802 71.6005 58.8094 73.2653 58.2512 75.3386C57.2389 79.0952 58.1549 82.6333 57.9919 86.4446C57.7978 90.9774 57.4132 95.183 58.3815 99.679C58.9319 102.235 59.3173 104.885 59.9471 107.418C60.071 107.915 60.5804 110.04 61.2384 110.216C62.8011 108.835 63.1645 106.594 63.5471 104.766C64.1279 101.987 64.8916 99.3043 65.6566 96.5678C66.2927 94.2938 67.0443 92.176 67.9539 89.9852C69.0356 87.3777 69.3445 84.5453 70.1159 81.8603C71.1863 78.1335 70.9213 74.8521 70.6373 71.0053C70.3723 67.4107 70.9624 63.7614 71.0205 60.1604C71.08 56.4661 71.6793 52.8448 71.9676 49.1613C72.054 48.0547 72.2573 46.9171 71.9726 45.8518C72.309 46.8313 72.4713 47.8616 72.7312 48.8627C73.4084 51.4645 73.4708 54.1482 74.2394 56.7373C74.7048 58.3031 75.3466 59.8581 75.5109 61.4798C75.6151 62.5139 75.4904 63.5531 75.6724 64.584C76.0217 66.5544 76.6465 67.9614 76.339 70.0074C75.9544 72.559 76.22 75.2281 76.072 77.8185C75.9246 80.4025 76.434 82.8232 76.7605 85.3622C76.9851 87.1121 77.1182 88.7148 77.6481 90.4317C77.9804 91.5071 77.7926 92.5603 77.8536 93.6636C77.9825 95.9866 79.8399 97.983 80.8833 99.9776C81.326 100.824 81.5364 101.764 81.9728 102.612C82.4743 103.587 83.3648 104.319 84.0909 105.159C85.4439 106.724 85.8561 108.555 86.8188 110.293C87.3232 111.205 87.9926 112.021 88.4403 112.962C88.7591 113.633 88.9341 114.395 89.3003 115.048C89.5681 115.527 90.6073 117.329 91.135 117.292C91.028 116.054 90.4996 114.775 90.285 113.543Z" fill="#74B88B"/>
</g>
</svg>
