<svg width="1772" height="154" viewBox="0 0 1772 154" fill="none" xmlns="http://www.w3.org/2000/svg">
<path fill-rule="evenodd" clip-rule="evenodd" d="M6.90743 140.751L56.6759 0C65.82 4.09457 70.0601 8.49779 77.7488 12.9793C83.4113 16.2806 93.0443 19.7377 94.7364 23.65C95.1943 24.7062 94.1438 25.7648 94.9688 26.7799C96.0306 28.0835 99.0387 28.448 101.6 29.3948C104.23 30.365 105.836 31.6306 108.307 32.6542C111.1 33.812 114.746 35.1009 118.464 35.9291C120.572 36.3975 122.397 36.5448 124.27 37.2862C129.075 39.1885 128.239 42.3269 130.798 44.6401C133.746 47.3063 137.858 49.6234 140.03 52.3617C143.536 56.7788 150.137 61.1456 156.206 65.196C158.865 66.9687 164.076 68.0087 169.077 68.7733C171.404 69.1292 172.342 69.1734 175.284 69.2052C179.438 69.251 183.216 69.7698 187.416 69.8241C191.889 69.8815 196.443 69.7938 200.918 69.7938C210.104 69.7938 220.387 70.2398 229.417 69.7062C242.644 68.9237 254.484 65.866 266.5 63.9474C271.817 63.0983 278.333 62.6663 284.011 62.2832C287.63 62.0397 290.183 61.6458 293.905 61.6536C303.662 61.6729 312.576 63.2472 321.667 64.4469C329.354 65.4604 337.562 65.5876 345.346 66.595C353.021 67.5884 360.628 68.0885 368.593 68.6306C378.981 69.3371 389.136 70.9346 399.788 70.9703C402.195 70.9788 406.495 70.5624 408.545 71.0447C412.144 71.8931 414.411 74.5708 415.904 75.8031C419.49 78.7623 423.509 81.817 428.853 84.4443C431.485 85.7379 432.602 86.6491 436.582 87.3997C438.946 87.8464 441.614 88.131 443.916 88.6095C451.211 90.124 456.011 93.3407 462.242 95.3112C464.759 96.1069 467.126 97.1841 469.707 97.7393C469.891 97.7788 472.052 97.7222 472.709 97.8254C473.616 97.9673 474.456 98.4256 475.498 98.6055C477.869 99.015 480.387 98.8816 482.955 98.8746C488.951 98.8583 495.167 99.1111 501.024 98.6047C504.933 98.2666 508.16 97.6563 511.778 97.1166C519.934 95.9006 530.385 96.5419 538.941 96.5288C557.667 96.4985 576.575 96.8568 595.15 97.7246C600.662 97.9828 610.891 97.7936 615.812 98.863C618.557 99.4593 619.957 100.206 622.707 100.762C625.991 101.427 629.019 101.581 632.328 102.101C635.447 102.59 637.675 103.652 640.663 104.267C643.121 104.771 644.742 104.966 647.191 105.256C656.927 106.406 669.007 107.041 679.275 107.044C692.898 107.047 706.93 105.627 720.715 106.537C729.096 107.09 739.634 107.859 747.172 109.3C751.463 110.121 755.418 111.352 759.667 112.24C765.533 113.466 769.663 115.185 774.578 116.788C780.008 118.56 785.865 120.477 793.216 120.997C795.091 121.13 796.217 121.036 798.106 121.313C801.928 121.872 806.947 123.089 810.358 123.859C813.643 124.601 815.784 125.399 818.58 126.372C822.448 127.719 827.065 128.508 831.033 129.796C838.828 132.326 845.167 135.975 856.508 136.708C864.152 137.202 873.413 136.68 881.093 136.68C917.15 136.68 953.302 136.415 989.341 136.809C1023.43 137.181 1057.39 137.257 1091.5 137.26C1114.41 137.263 1137.62 136.862 1160.5 137.377C1170.66 137.606 1181.67 137.792 1191.51 138.741C1197.92 139.359 1200.01 137.688 1206.02 136.809C1211.75 135.973 1217.47 135.72 1223.7 135.461C1246.49 134.516 1270.34 134.892 1293.21 134.935C1333.02 135.008 1372.31 134.353 1411.86 132.635C1422.92 132.154 1434.02 131.769 1444.41 130.255C1447.29 129.836 1454.68 129.226 1456.68 128.497C1457.12 128.34 1458.87 125.347 1458.28 125.943C1459.82 124.403 1463.03 123.254 1466.42 122.183C1469.97 121.061 1474 120.259 1477.87 119.299C1484.96 117.541 1490.78 115.265 1496.78 113.085C1500.68 111.667 1504.8 110.201 1508.36 108.667C1509.79 108.05 1511.52 106.528 1513.25 106.142C1516.88 105.33 1522.91 106.088 1526.8 106.436C1535.17 107.183 1542.57 107.17 1550.94 106.436C1563.47 105.335 1577.37 105.856 1590.3 105.854C1597.5 105.852 1605.52 106.376 1612.17 105.224C1624.15 103.145 1635.57 100.702 1647.81 98.7474C1663.4 96.255 1677.02 93.5563 1694.44 93.6091C1702.89 93.6346 1709.49 93.5051 1717.49 92.4001C1729.11 90.7956 1738.98 88.3171 1750.03 86.3582C1756.73 85.1702 1766.03 84.0907 1772 82.4444C1772.04 84.3265 1768.6 86.3862 1766.53 88.0666C1760.69 92.8041 1757.42 97.8323 1754.12 102.845C1745.65 115.731 1741.51 129.108 1742.13 142.324C1742.22 144.105 1744.79 148.964 1737.51 149.988C1733.42 150.563 1724.98 149.327 1721.84 149.104C1707.36 148.075 1692.51 147.692 1677.84 147.163C1643.5 145.927 1608.4 144.455 1573.87 144.086C1543.44 143.761 1513.13 144.167 1482.74 144.633C1421.17 145.577 1360.32 146.155 1298.66 145.346C1255.03 144.773 1211.45 143.952 1167.79 143.66C1068.63 142.996 969.803 146.06 870.768 147.074C794.613 147.854 718.355 147.8 642.178 147.698C610.132 147.655 579.134 147.768 548.366 151.242C534.917 152.76 522.303 155.06 508.166 153.453C496.551 152.134 485.744 150.082 474.054 148.82C457.936 147.08 441.567 146.11 424.743 145.743C397.565 145.151 370.215 145.167 343.006 144.811C317.007 144.471 291.05 144.277 265.031 144.165C214.362 143.945 163.368 142.563 112.925 144.801C89.0385 145.861 63.1103 147.734 39.102 145.989C30.1437 145.339 21.3492 144.48 12.4528 143.743C9.89583 143.531 2.70468 143.427 1.02582 142.727C-2.59069 141.216 4.31504 141.149 6.90743 140.751Z" fill="#50614A"/>
</svg>
