<svg width="359" height="301" viewBox="0 0 359 301" fill="none" xmlns="http://www.w3.org/2000/svg">
<g clip-path="url(#clip0_70402_1775)">
<mask id="mask0_70402_1775" style="mask-type:alpha" maskUnits="userSpaceOnUse" x="0" y="0" width="130" height="93">
<path d="M0 0H129.854V92.5659H0V0Z" fill="white"/>
</mask>
<g mask="url(#mask0_70402_1775)">
<path fill-rule="evenodd" clip-rule="evenodd" d="M128.995 -3.30739C128.92 -2.82157 128.369 -2.56512 128.058 -2.36526C127.631 -2.09074 127.197 -1.84212 126.793 -1.51644C125.599 -0.555042 124.484 0.42983 123.197 1.19919C122.612 1.54955 122.022 1.88908 121.446 2.26292C120.808 2.67649 120.213 3.19181 119.553 3.54759C118.336 4.20377 117.094 4.62035 115.923 5.42523C113.458 7.12046 111.221 9.34063 108.689 10.8715C107.485 11.5999 106.422 12.4373 105.342 13.4228C104.221 14.445 103.069 15.3173 101.865 16.1715C99.5754 17.7951 97.5993 20.0219 95.2934 21.6124C92.9385 23.2366 90.5577 24.7753 88.4116 26.8251C87.5711 27.6282 86.7311 28.489 86.1105 29.5732C85.5801 30.4991 85.4879 31.6983 84.8999 32.5688C83.0313 35.335 80.5684 37.4745 78.7914 40.3418C78.4089 40.9589 78.0873 41.6259 77.7335 42.2676C77.3558 42.9521 76.8921 43.5288 76.4385 44.132C75.5303 45.3408 74.7446 46.6646 73.8926 47.933C72.0724 50.6432 70.0708 53.1644 68.3788 56.0089C67.6434 57.2448 66.9657 58.8347 65.9414 59.7352C65.1633 60.4203 64.126 60.2578 63.357 61.056C62.9217 61.5081 62.6255 61.9639 62.0529 62.1601C61.5537 62.3317 61.0271 62.4057 60.5217 62.5562C59.1441 62.9668 57.7521 63.092 56.4018 63.6675C55.1471 64.2027 53.9457 64.9112 52.7073 65.4994C51.5207 66.0629 50.3495 66.3886 49.0962 66.6041C47.9289 66.8045 47.015 67.5324 45.9681 68.1524C44.7148 68.8941 43.3386 69.2583 42.0278 69.8061C40.7361 70.3449 39.5721 71.0438 38.3582 71.8011C37.7241 72.1973 37.0689 72.4958 36.359 72.5747C35.6673 72.6506 34.9713 72.5843 34.2801 72.6734C32.985 72.8402 31.7687 73.3699 30.4559 73.3784C29.0942 73.3868 27.7449 73.627 26.411 73.9587C23.625 74.6504 20.9198 75.5432 18.2673 76.8206C15.7646 78.0258 13.2057 79.0667 10.7207 80.3224C5.62409 82.8984 0.952247 86.5808 -3.55447 90.486C-4.64695 91.4324 -5.73079 92.3944 -6.81127 93.3612C-7.12183 93.6393 -6.82999 94.287 -6.50887 94.0113C-1.93207 90.076 2.71481 86.2552 7.72457 83.2337C10.2724 81.6968 12.9134 80.6373 15.5601 79.4243C18.1262 78.248 20.6438 76.879 23.3198 76.1295C24.7319 75.734 26.146 75.3192 27.575 75.0291C28.9842 74.7425 30.4007 74.8725 31.8042 74.6263C32.3644 74.5282 32.9135 74.3614 33.4674 74.2236C34.2302 74.0328 34.9766 74.0201 35.7513 74.0039C37.065 73.9768 38.1786 73.5168 39.3378 72.7667C41.7662 71.1937 44.4964 70.7236 46.9329 69.2107C47.4738 68.8748 47.997 68.4516 48.5831 68.2499C49.1572 68.0525 49.7591 68.0326 50.3447 67.917C51.6551 67.6594 52.8993 67.0682 54.1233 66.4469C55.3449 65.8269 56.5574 65.1569 57.8394 64.7511C58.4927 64.544 59.159 64.4393 59.8233 64.3062C60.5006 64.1714 61.1567 63.9288 61.833 63.7957C62.3145 63.7018 62.781 63.5495 63.2097 63.2443C63.7161 62.8837 64.0343 62.2317 64.5753 61.9488C64.9684 61.7429 65.3999 61.6972 65.8041 61.54C66.286 61.3528 66.694 61.0217 67.065 60.5967C67.9823 59.545 68.6572 58.1634 69.3911 56.9191C70.2532 55.458 71.2218 54.0957 72.1866 52.7412C73.1423 51.4 74.11 50.0707 75.0263 48.6861C75.8894 47.3816 76.713 46.0662 77.6471 44.8364C78.5351 43.6673 79.1212 42.2646 79.9554 41.0522C80.8986 39.682 81.9993 38.4491 83.0274 37.1795C84.0268 35.9454 85.1678 34.7553 86.0226 33.3568C86.5742 32.4544 86.6654 31.2829 87.2058 30.3757C87.8567 29.2831 88.7846 28.412 89.6596 27.6216C90.8183 26.5747 92.0375 25.6392 93.2802 24.7579C94.4918 23.8988 95.7503 23.1373 96.9278 22.2066C98.0577 21.3132 99.1228 20.3012 100.213 19.3368C101.321 18.3562 102.48 17.5435 103.648 16.6856C104.841 15.8091 105.916 14.7243 107.047 13.7316C108.108 12.7991 109.319 12.2296 110.443 11.4338C111.674 10.5609 112.832 9.50739 114.029 8.56225C115.226 7.61711 116.452 6.58106 117.76 5.89298C118.358 5.57874 118.983 5.35178 119.586 5.05199C120.252 4.72089 120.844 4.2748 121.463 3.82812C122.63 2.98592 123.888 2.35924 125.054 1.51704C126.116 0.750093 127.036 -0.27752 128.127 -0.980656C128.806 -1.41831 129.685 -1.97998 129.845 -3.01361C129.952 -3.70832 129.103 -4.00631 128.995 -3.30739Z" fill="#ACCEB0"/>
</g>
<path fill-rule="evenodd" clip-rule="evenodd" d="M365.94 181.328C364.57 181.418 363.584 182.213 362.58 183.323C361.253 184.791 359.822 186.088 358.518 187.593C355.731 190.805 352.988 194.177 350.604 197.871C349.461 199.643 348.383 201.491 347.44 203.442C346.487 205.414 345.772 207.543 344.731 209.452C342.723 213.14 340.003 216.133 337.429 219.179C336.094 220.76 334.948 222.586 333.555 224.091C332.143 225.618 330.521 226.796 329.106 228.33C327.793 229.754 325.977 229.933 324.577 231.216C323.237 232.442 321.858 233.551 320.723 235.08C320.121 235.89 319.517 236.549 318.726 237.058C317.914 237.58 317.105 238.037 316.411 238.8C315.744 239.532 315.216 240.438 314.562 241.19C313.752 242.122 312.848 242.926 311.929 243.679C310.446 244.894 308.893 246.154 307.181 246.788C306.283 247.12 305.356 247.396 304.431 247.585C303.315 247.815 302.187 247.742 301.067 247.909C300.127 248.049 299.199 248.291 298.259 248.43C297.285 248.575 296.332 248.509 295.356 248.501C293.625 248.487 292.244 249.66 290.578 250.015C288.635 250.429 286.674 250.578 284.731 251.024C282.743 251.48 280.715 251.269 278.709 251.436C276.795 251.596 274.898 251.964 273.014 252.399C272.083 252.613 271.146 252.813 270.234 253.134C269.284 253.469 268.35 253.916 267.363 254.058C263.426 254.62 259.385 253.517 255.46 254.388C253.662 254.788 251.861 254.83 250.063 255.246C249.219 255.441 248.35 255.411 247.52 255.695C246.694 255.978 245.913 256.48 245.199 257.065C243.825 258.188 242.696 260.044 240.978 260.252C239.254 260.46 237.508 260.242 235.777 260.464C232 260.948 228.058 262.136 224.526 263.878C222.954 264.653 221.422 265.605 219.883 266.483C218.224 267.43 216.792 268.837 215.189 269.91C211.789 272.186 207.932 273.448 204.396 275.363C202.691 276.285 201.032 277.32 199.446 278.533C197.949 279.677 196.602 281.128 195.082 282.212C194.429 282.678 193.753 283.091 193.163 283.679C192.387 284.452 191.729 285.388 190.942 286.146C189.451 287.583 187.842 288.835 186.193 289.964C184.538 291.095 182.83 292.096 181.102 293.04C179.332 294.008 177.47 295.388 175.554 295.784C174.877 295.924 174.183 296 173.585 296.46C172.963 296.937 172.624 297.941 171.948 298.292C171.366 298.594 171.619 299.801 172.212 299.494C172.78 299.199 173.119 298.749 173.532 298.188C174.228 297.239 175.003 297.179 175.96 296.962C177.675 296.575 179.369 295.342 180.958 294.478C184.474 292.565 187.932 290.482 191.035 287.63C192.432 286.348 193.555 284.73 195.078 283.67C196.595 282.614 197.929 281.238 199.395 280.077C202.687 277.471 206.293 275.717 209.921 273.999C211.669 273.171 213.451 272.385 215.143 271.386C216.784 270.418 218.202 268.96 219.824 267.946C223.204 265.834 226.705 264.112 230.388 263.045C232.329 262.482 234.291 261.928 236.283 261.751C237.958 261.602 239.678 261.877 241.34 261.611C242.912 261.36 243.891 260.032 245.117 258.917C245.86 258.242 246.658 257.615 247.536 257.259C248.406 256.905 249.334 256.951 250.233 256.766C252.087 256.382 253.94 256.301 255.792 255.896C257.734 255.473 259.759 255.666 261.724 255.663C263.67 255.66 265.682 255.931 267.617 255.621C269.491 255.321 271.311 254.422 273.177 253.992C275.188 253.529 277.211 253.145 279.256 253.022C281.148 252.908 283.031 253.039 284.907 252.643C285.885 252.436 286.83 252.163 287.823 252.054C288.748 251.952 289.678 251.888 290.599 251.725C292.372 251.411 293.861 250.209 295.682 250.298C297.641 250.394 299.479 249.929 301.422 249.779C302.384 249.704 303.342 249.793 304.303 249.664C305.315 249.529 306.32 249.291 307.311 248.999C309.006 248.5 310.478 247.477 311.953 246.348C313.596 245.09 315.241 243.703 316.559 241.928C317.202 241.063 317.785 240.264 318.628 239.701C319.432 239.163 320.251 238.744 320.968 238.019C321.58 237.399 322.078 236.644 322.635 235.952C323.263 235.172 324.046 234.707 324.74 234.037C325.44 233.362 326.087 232.703 326.915 232.287C327.642 231.922 328.4 231.665 329.094 231.201C329.852 230.695 330.415 229.926 331.061 229.236C331.81 228.437 332.642 227.778 333.433 227.05C334.971 225.636 336.198 223.922 337.487 222.176C338.657 220.591 339.95 219.153 341.166 217.626C343.659 214.499 345.927 211.085 347.414 207.05C349.016 202.702 351.292 198.817 353.828 195.258C356.371 191.689 359.072 188.203 362.02 185.161C363.268 183.874 364.204 182.278 365.94 182.129C366.346 182.094 366.352 181.303 365.94 181.328Z" fill="#ACCEB0"/>
<path fill-rule="evenodd" clip-rule="evenodd" d="M333.843 91.3084C334.118 92.938 334.066 94.6958 333.662 95.8998C332.55 99.209 329.2 99.982 327.374 97.155C326.483 95.7752 325.793 93.9656 326.249 92.1433C326.46 91.2987 327.069 90.2338 327.533 89.5824C328.464 88.2773 330.681 86.3858 332.099 87.5194C332.982 88.2261 333.571 89.7053 333.843 91.3084Z" fill="#ACCEB0"/>
<path fill-rule="evenodd" clip-rule="evenodd" d="M327.265 110.005C329.88 109.5 330.249 112.711 329.989 115.219C329.861 116.462 329.818 118.053 328.784 118.461C327.458 118.983 325.925 118.466 325.334 116.792C324.599 114.709 325.047 112.926 326.006 111.177C326.36 110.533 326.618 110.129 327.265 110.005Z" fill="#ACCEB0"/>
<path fill-rule="evenodd" clip-rule="evenodd" d="M314.237 73.3134C316.852 72.8089 317.221 76.02 316.962 78.5279C316.833 79.771 316.79 81.3621 315.757 81.7691C314.43 82.2916 312.897 81.7739 312.306 80.1003C311.57 78.0174 312.019 76.2337 312.979 74.4855C313.332 73.8407 313.591 73.438 314.237 73.3134Z" fill="#ACCEB0"/>
<path fill-rule="evenodd" clip-rule="evenodd" d="M312.106 106.798C314.71 106.896 314.942 111.584 313.926 114.191C313.31 115.773 312.437 115.94 311.347 116.51C309.977 117.227 308.494 117.562 307.206 116.238C305.229 114.205 308.035 110.687 308.93 109.113C309.368 108.341 309.777 107.609 310.432 107.225C310.94 106.925 311.562 106.778 312.106 106.798Z" fill="#ACCEB0"/>
<path fill-rule="evenodd" clip-rule="evenodd" d="M333.528 137.41C333.355 140.539 330.657 147.647 327.478 143.735C325.789 141.657 326.719 138.131 328.148 136.325C328.75 135.564 329.118 134.643 329.673 133.849C330.011 133.365 330.478 132.867 330.949 132.606C333.366 131.263 333.637 135.436 333.528 137.41Z" fill="#ACCEB0"/>
<path fill-rule="evenodd" clip-rule="evenodd" d="M318.309 122.793C320.665 123.612 320.933 126.564 319.946 128.999C319.57 129.925 319.039 131.555 318.338 132.166C317.412 132.973 315.811 132.463 314.93 131.811C313.32 130.622 313.374 128.546 313.929 126.542C314.359 124.993 315.099 123.309 316.424 122.772C317.041 122.522 317.692 122.578 318.309 122.793Z" fill="#ACCEB0"/>
<path fill-rule="evenodd" clip-rule="evenodd" d="M298.334 140.801C297.766 143.723 296.11 145.739 293.633 144.965C292.958 144.753 291.32 144.229 290.917 143.39C290.544 142.615 290.731 141.124 290.895 140.26C291.229 138.504 292.268 137.487 293.159 136.182C294.147 134.737 295.307 134.235 296.859 135.31C298.411 136.386 298.721 138.809 298.334 140.801Z" fill="#ACCEB0"/>
<path fill-rule="evenodd" clip-rule="evenodd" d="M347.417 105.591C347.937 107.494 347.122 109.728 346.372 111.353C345.569 113.097 343.822 112.758 342.372 112.515C341.725 111.061 342.288 108.011 342.944 106.641C343.275 105.95 343.78 105.514 344.316 105.095C345.374 104.268 346.89 103.662 347.417 105.591Z" fill="#ACCEB0"/>
<path fill-rule="evenodd" clip-rule="evenodd" d="M347.758 92.1265C349.88 90.642 352.294 86.8289 351.076 83.6395C350.237 81.4404 348.169 82.1249 346.851 83.1717C346.155 83.725 345.309 84.5298 345.015 85.534C344.527 87.2063 344.017 90.5119 344.811 91.7966C345.608 93.0861 346.711 92.8579 347.758 92.1265Z" fill="#ACCEB0"/>
<path fill-rule="evenodd" clip-rule="evenodd" d="M332.607 60.1278C331.307 61.5617 330.634 63.313 331.795 65.2556C332.628 66.648 334.201 67.9809 335.641 67.4114C338.148 66.4193 338.994 60.4637 336.698 58.6029C335.298 57.4687 333.603 59.0297 332.607 60.1278Z" fill="#ACCEB0"/>
<path fill-rule="evenodd" clip-rule="evenodd" d="M310.203 93.2372C311.498 92.7098 312.749 93.1782 313.239 94.8535C313.614 96.1352 313.605 98.0074 312.651 98.8749C311.829 99.622 310.212 100.116 309.219 100.247C307.933 100.418 307.452 99.4077 307.543 97.872C307.621 96.5452 307.804 95.0594 308.669 94.1667C309.103 93.7182 309.673 93.4527 310.203 93.2372Z" fill="#ACCEB0"/>
<path fill-rule="evenodd" clip-rule="evenodd" d="M291.749 103.499C293.921 103.398 294.61 106.515 294.592 108.709C294.576 110.752 293.187 113.972 291.232 113.474C288.275 112.719 288.153 108.457 289.388 105.708C289.878 104.617 290.687 103.549 291.749 103.499Z" fill="#ACCEB0"/>
<path fill-rule="evenodd" clip-rule="evenodd" d="M55.0916 232.58C55.3671 234.209 55.3148 235.967 54.9106 237.171C53.7989 240.48 50.4495 241.253 48.6231 238.426C47.7317 237.047 47.0425 235.237 47.498 233.414C47.7092 232.57 48.3183 231.505 48.7825 230.854C49.7132 229.549 51.9298 227.657 53.3482 228.791C54.2314 229.497 54.8204 230.977 55.0916 232.58Z" fill="white"/>
<path fill-rule="evenodd" clip-rule="evenodd" d="M48.5142 251.276C51.1288 250.772 51.4984 253.983 51.2387 256.491C51.1101 257.734 51.0674 259.325 50.0334 259.732C48.7077 260.254 47.1746 259.737 46.5837 258.063C45.8478 255.98 46.2962 254.197 47.2557 252.448C47.6094 251.804 47.8677 251.401 48.5142 251.276Z" fill="white"/>
<path fill-rule="evenodd" clip-rule="evenodd" d="M35.4859 214.585C38.101 214.08 38.4701 217.291 38.2109 219.799C38.0823 221.042 38.0391 222.633 37.0056 223.04C35.6794 223.563 34.1463 223.045 33.5554 221.372C32.82 219.289 33.2679 217.505 34.2279 215.757C34.5811 215.112 34.8399 214.709 35.4859 214.585Z" fill="white"/>
<path fill-rule="evenodd" clip-rule="evenodd" d="M33.3548 248.07C35.9593 248.167 36.1907 252.855 35.175 255.462C34.5587 257.044 33.6865 257.212 32.5959 257.782C31.2255 258.498 29.7433 258.834 28.4555 257.51C26.4779 255.477 29.2844 251.958 30.1787 250.384C30.6169 249.613 31.0263 248.88 31.6806 248.496C32.1894 248.197 32.811 248.049 33.3548 248.07Z" fill="white"/>
<path fill-rule="evenodd" clip-rule="evenodd" d="M54.7773 278.681C54.604 281.811 51.9064 288.918 48.7274 285.006C47.0382 282.928 47.9685 279.402 49.397 277.597C49.9989 276.835 50.367 275.914 50.9219 275.12C51.2598 274.636 51.7269 274.139 52.1982 273.877C54.615 272.534 54.8867 276.707 54.7773 278.681Z" fill="white"/>
<path fill-rule="evenodd" clip-rule="evenodd" d="M39.5578 264.064C41.9146 264.884 42.1824 267.836 41.1951 270.27C40.8192 271.197 40.2884 272.826 39.5866 273.437C38.6607 274.244 37.0604 273.734 36.1786 273.082C34.5692 271.893 34.6229 269.817 35.1783 267.812C35.6079 266.264 36.349 264.58 37.6733 264.043C38.2901 263.793 38.941 263.849 39.5578 264.064Z" fill="white"/>
<path fill-rule="evenodd" clip-rule="evenodd" d="M19.5836 282.072C19.0153 284.995 17.3588 287.01 14.882 286.236C14.2071 286.025 12.5689 285.5 12.1661 284.662C11.7932 283.886 11.9799 282.396 12.1445 281.531C12.4786 279.775 13.5173 278.758 14.4087 277.453C15.3965 276.009 16.5567 275.507 18.1081 276.581C19.6604 277.657 19.9705 280.081 19.5836 282.072Z" fill="white"/>
<path fill-rule="evenodd" clip-rule="evenodd" d="M68.6665 246.863C69.1864 248.766 68.3713 250.999 67.6216 252.624C66.8181 254.368 65.0713 254.028 63.6212 253.786C62.9737 252.333 63.5377 249.283 64.1934 247.912C64.5241 247.221 65.0296 246.785 65.5652 246.366C66.6232 245.539 68.139 244.933 68.6665 246.863Z" fill="white"/>
<path fill-rule="evenodd" clip-rule="evenodd" d="M69.0069 233.398C71.1295 231.913 73.5429 228.1 72.3256 224.911C71.4861 222.712 69.4187 223.396 68.1007 224.443C67.4042 224.996 66.5579 225.801 66.2646 226.805C65.776 228.478 65.2667 231.783 66.0607 233.068C66.857 234.357 67.9605 234.129 69.0069 233.398Z" fill="white"/>
<path fill-rule="evenodd" clip-rule="evenodd" d="M53.856 201.399C52.5562 202.833 51.8828 204.584 53.0439 206.527C53.8767 207.919 55.4496 209.252 56.8901 208.683C59.3972 207.691 60.2429 201.735 57.9466 199.874C56.5474 198.74 54.8516 200.301 53.856 201.399Z" fill="white"/>
<path fill-rule="evenodd" clip-rule="evenodd" d="M31.4516 234.509C32.7467 233.981 33.9975 234.45 34.4881 236.125C34.863 237.407 34.8543 239.279 33.9001 240.146C33.0779 240.893 31.4607 241.387 30.4676 241.519C29.1817 241.69 28.7012 240.679 28.7919 239.143C28.8702 237.816 29.0531 236.33 29.9175 235.438C30.3524 234.989 30.9222 234.724 31.4516 234.509Z" fill="white"/>
<path fill-rule="evenodd" clip-rule="evenodd" d="M12.9986 244.771C15.1706 244.669 15.8589 247.787 15.8416 249.981C15.8253 252.023 14.4367 255.244 12.4816 254.745C9.52434 253.99 9.40242 249.728 10.6375 246.978C11.1271 245.889 11.9363 244.821 12.9986 244.771Z" fill="white"/>
<path fill-rule="evenodd" clip-rule="evenodd" d="M137.52 18.6223C140.135 18.1178 140.504 21.3289 140.245 23.8368C140.116 25.0799 140.074 26.671 139.04 27.0786C137.714 27.6005 136.18 27.0834 135.59 25.4092C134.854 23.3263 135.302 21.5432 136.262 19.7944C136.616 19.1502 136.874 18.7469 137.52 18.6223Z" fill="white"/>
<path fill-rule="evenodd" clip-rule="evenodd" d="M122.361 15.416C124.965 15.5136 125.197 20.2013 124.181 22.8086C123.565 24.3906 122.692 24.558 121.602 25.1281C120.232 25.8445 118.749 26.1798 117.462 24.856C115.484 22.823 118.291 19.3043 119.185 17.7307C119.623 16.959 120.033 16.2263 120.686 15.8422C121.195 15.5431 121.817 15.3956 122.361 15.416Z" fill="white"/>
<path fill-rule="evenodd" clip-rule="evenodd" d="M143.784 46.0277C143.61 49.1569 140.912 56.2641 137.733 52.3523C136.044 50.2742 136.974 46.7483 138.403 44.9429C139.005 44.1814 139.373 43.2603 139.928 42.4663C140.266 41.9823 140.733 41.485 141.204 41.2232C143.621 39.8807 143.893 44.0538 143.784 46.0277Z" fill="white"/>
<path fill-rule="evenodd" clip-rule="evenodd" d="M128.564 31.4105C130.921 32.2299 131.189 35.1821 130.201 37.6166C129.826 38.543 129.294 40.1727 128.593 40.7843C127.667 41.5904 126.067 41.0805 125.185 40.4285C123.576 39.2396 123.629 37.1633 124.185 35.1592C124.614 33.6103 125.355 31.9265 126.68 31.3895C127.296 31.1396 127.947 31.1956 128.564 31.4105Z" fill="white"/>
<path fill-rule="evenodd" clip-rule="evenodd" d="M108.589 49.4182C108.022 52.3409 106.365 54.3564 103.888 53.5822C103.213 53.3709 101.575 52.8466 101.172 52.008C100.8 51.2326 100.986 49.7421 101.15 48.8776C101.485 47.1216 102.523 46.1042 103.415 44.7996C104.402 43.3548 105.563 42.8528 107.114 43.9273C108.666 45.0031 108.977 47.4268 108.589 49.4182Z" fill="white"/>
<path fill-rule="evenodd" clip-rule="evenodd" d="M157.672 14.209C158.193 16.1119 157.377 18.3454 156.628 19.9708C155.824 21.7141 154.078 21.3752 152.628 21.1332C151.98 19.6788 152.544 16.6291 153.2 15.2583C153.531 14.5672 154.036 14.1314 154.572 13.7124C155.629 12.8852 157.145 12.2796 157.672 14.209Z" fill="white"/>
<path fill-rule="evenodd" clip-rule="evenodd" d="M120.458 1.85479C121.753 1.32743 123.004 1.79579 123.494 3.47116C123.869 4.75281 123.86 6.62503 122.906 7.49252C122.084 8.2396 120.467 8.73384 119.474 8.86508C118.188 9.03604 117.708 8.02529 117.798 6.48958C117.877 5.16278 118.06 3.67704 118.924 2.78427C119.359 2.33578 119.929 2.0703 120.458 1.85479Z" fill="white"/>
<path fill-rule="evenodd" clip-rule="evenodd" d="M102.004 12.1171C104.177 12.0159 104.865 15.1331 104.848 17.3268C104.832 19.3694 103.442 22.5901 101.488 22.0916C98.5301 21.3367 98.4087 17.0746 99.6437 14.3252C100.133 13.235 100.943 12.1671 102.004 12.1171Z" fill="white"/>
<path fill-rule="evenodd" clip-rule="evenodd" d="M71.6451 -8.26483C71.5615 -8.88188 70.8766 -8.76148 70.7407 -8.26483C70.2175 -6.34626 70.0207 -4.33438 69.3847 -2.4459C68.7679 -0.613415 67.9107 1.11252 66.859 2.60187C64.8598 5.43247 62.2039 7.3059 59.4161 8.64836C53.8803 11.314 47.6297 12.2381 42.6939 16.6206C37.374 21.3445 34.843 29.2976 30.2609 34.9275C26.0028 40.1594 20.5668 43.6155 14.8534 45.5889C11.9412 46.5948 8.94938 47.2354 5.94218 47.5719C2.90858 47.912 -0.123101 47.8482 -3.1639 47.7729C-3.90454 47.7543 -4.64662 47.7886 -5.38822 47.7832C-5.81254 47.7802 -5.92198 48.6127 -5.49046 48.7301C-2.42662 49.5633 0.648739 49.7102 3.77546 49.5627C6.87578 49.4164 9.96698 48.9505 12.9977 48.1095C18.9391 46.4612 24.6627 43.3506 29.3806 38.4775C31.8583 35.919 33.8916 32.8758 35.7483 29.6076C37.6927 26.1852 39.5177 22.5901 42.0228 19.751C46.6899 14.4619 53.1511 13.3247 58.878 10.771C61.7441 9.49296 64.5305 7.81519 66.7879 5.21094C69.1812 2.44956 70.8771 -1.29548 71.5692 -5.27831C71.6551 -5.77195 71.7603 -6.2993 71.7823 -6.80438C71.8035 -7.28117 71.7084 -7.79347 71.6451 -8.26483Z" fill="#50614A"/>
<path fill-rule="evenodd" clip-rule="evenodd" d="M2.524 42.1099C5.28304 41.8504 8.0272 41.287 10.7114 40.446C15.9251 38.8122 20.9454 35.9316 25.023 31.4858C27.1715 29.1428 28.9139 26.3634 30.4571 23.3751C32.1299 20.1357 33.6846 16.7519 36.0515 14.2114C40.5318 9.40205 46.5731 7.99036 51.8094 4.96952C54.5397 3.39469 57.1662 1.26903 59.1986 -1.53509C61.0734 -4.12188 62.8485 -7.8007 62.1789 -11.4223C62.0939 -11.8811 61.5506 -11.8594 61.4555 -11.4223C61.1234 -9.88904 60.844 -8.29916 60.327 -6.84051C59.825 -5.42401 59.1194 -4.12429 58.2981 -2.97086C56.5178 -0.470149 54.2574 1.43277 51.8742 2.9143C46.8424 6.04108 41.1405 7.3408 36.4845 11.4398C34.0192 13.61 32.1899 16.4762 30.5387 19.6011C28.9422 22.6226 27.4245 25.6627 25.3686 28.2386C21.7058 32.8289 17.0512 35.8142 12.1504 37.7526C9.292 38.8832 6.36112 39.5857 3.4 40.1317C0.386558 40.6874 -2.672 41.0347 -5.71472 41.1774C-6.15248 41.1979 -6.14576 41.9841 -5.71472 42.0238C-2.96912 42.2779 -0.223043 42.3682 2.524 42.1099Z" fill="#50614A"/>
<path fill-rule="evenodd" clip-rule="evenodd" d="M22.875 18.2809C21.8804 20.6149 20.7999 22.9338 19.3335 24.8572C17.6828 27.0232 15.602 28.4126 13.3321 29.2831C10.5985 30.3312 7.72951 30.7791 4.91143 31.3167C1.80583 31.9084 -1.23833 32.018 -4.32905 31.2625C-4.60169 31.1957 -4.81673 31.6917 -4.53113 31.8645C-2.04953 33.3659 0.863591 33.42 3.55591 33.1431C6.23959 32.8668 8.95111 32.3461 11.5834 31.6315C14.0646 30.9573 16.5543 29.9188 18.6116 27.9996C20.367 26.3622 21.7335 24.2167 22.8798 21.8972C25.2078 17.1859 26.6905 11.6541 29.941 7.74715C33.5905 3.36038 38.677 1.73678 43.093 -1.03362C45.4234 -2.49528 47.6641 -4.3988 49.3988 -6.85857C51.0274 -9.16845 52.4444 -12.2368 52.083 -15.4196C52.0158 -16.0114 51.2838 -15.947 51.1786 -15.4196C50.917 -14.106 50.678 -12.7576 50.2302 -11.5181C49.789 -10.2972 49.1862 -9.17085 48.4825 -8.16431C46.9839 -6.02119 45.1033 -4.35184 43.1089 -3.00938C38.9026 -0.176974 34.1502 1.31659 30.3178 5.00986C26.7692 8.42922 24.9322 13.4559 22.875 18.2809Z" fill="#50614A"/>
<path fill-rule="evenodd" clip-rule="evenodd" d="M-4.68186 22.333C-0.46266 22.8953 3.78774 23.3089 7.97622 22.2048C11.3218 21.3235 14.5911 19.4693 17.0703 16.4689C18.3231 14.9531 19.3253 13.1628 20.0497 11.1786C20.8445 9.00113 21.4431 6.68825 22.7204 4.85455C25.0061 1.57185 28.3522 -0.0264639 31.3258 -2.07808C32.9525 -3.20021 34.538 -4.51016 35.8498 -6.17168C37.1348 -7.80009 38.2349 -9.81017 38.3084 -12.1562C38.3295 -12.8274 37.6167 -12.8406 37.4429 -12.3031C36.8415 -10.4411 36.0941 -8.72657 34.9484 -7.30224C33.7853 -5.85563 32.4025 -4.71966 30.974 -3.72997C28.1103 -1.74457 24.9874 -0.26004 22.5385 2.54829C21.2199 4.05991 20.3146 5.89541 19.6009 7.93439C18.8837 9.98058 18.217 12.0298 17.0602 13.7611C14.9852 16.8657 12.0399 18.9438 8.96502 20.0653C4.57206 21.6672 -0.151621 21.5871 -4.68186 21.4162C-5.16138 21.3981 -5.13978 22.2722 -4.68186 22.333Z" fill="#50614A"/>
<path fill-rule="evenodd" clip-rule="evenodd" d="M-2.9662 13.6853C-0.888761 15.0741 1.61012 15.5346 3.90116 14.7851C6.05684 14.0796 7.84244 12.4181 9.2882 10.3346C10.7426 8.23719 11.8874 5.84545 13.1916 3.60601C14.5836 1.21546 16.2175 -0.842172 18.341 -2.19426C19.5909 -2.99011 20.8975 -3.41572 22.2573 -3.79799C23.4876 -4.14354 24.8632 -4.55651 25.5352 -6.02599C25.6711 -6.32218 25.444 -6.7496 25.1647 -6.6304C24.1154 -6.18131 23.0863 -5.71717 21.9991 -5.42399C20.8466 -5.11276 19.7186 -4.80092 18.6252 -4.23264C16.5016 -3.12857 14.68 -1.35568 13.2117 0.85306C10.6063 4.77208 8.87396 10.0757 5.1194 12.5559C2.76596 14.1103 -0.188921 14.274 -2.635 12.9743C-3.0118 12.7745 -3.34924 13.4288 -2.9662 13.6853Z" fill="#50614A"/>
<mask id="mask1_70402_1775" style="mask-type:alpha" maskUnits="userSpaceOnUse" x="288" y="0" width="72" height="44">
<path d="M288.649 0H360V43.4305H288.649V0Z" fill="white"/>
</mask>
<g mask="url(#mask1_70402_1775)">
<path fill-rule="evenodd" clip-rule="evenodd" d="M369.257 42.5409C368.504 42.4079 367.746 42.3031 366.996 42.1442C366.143 41.9636 365.388 41.5729 364.591 41.172C362.983 40.3629 361.39 39.5086 359.773 38.7248C358.292 38.0067 356.647 37.3697 355.327 36.2368C354.148 35.226 353.226 33.7812 352.278 32.4628C351.28 31.0722 350.196 29.7749 349.073 28.545C347.88 27.2399 346.631 25.8944 345.25 24.9108C344.037 24.0457 342.675 23.4322 341.582 22.3197C340.638 21.3577 339.774 20.4198 338.594 19.9449C337.378 19.456 336.04 19.3236 334.784 19.0906C333.077 18.7746 331.38 18.4001 329.677 18.0648C326.654 17.4688 323.543 17.7476 320.55 16.9054C318.982 16.4641 317.605 15.646 316.28 14.5154C314.993 13.4186 313.795 12.1676 312.508 11.0726C311.174 9.9378 309.747 8.98424 308.434 7.81034C307.142 6.6563 306.066 5.19043 304.973 3.76129C303.727 2.13107 302.389 0.610417 301.092 -0.956589C299.875 -2.42848 298.586 -3.72218 297.112 -4.76665C296.319 -5.32891 295.498 -5.86289 294.627 -6.20603C293.891 -6.49559 293.151 -6.54255 292.389 -6.59793C291.616 -6.65392 290.824 -6.73458 290.055 -6.56843C289.761 -6.50462 289.493 -6.38964 289.236 -6.19941C288.921 -5.96583 288.695 -5.63473 288.299 -5.73647C287.737 -5.88095 287.493 -4.81902 288.06 -4.64805C288.602 -4.48491 289.017 -4.6336 289.48 -4.98939C290.099 -5.46557 290.744 -5.43426 291.451 -5.37948C292.129 -5.32651 292.853 -5.29099 293.521 -5.13086C294.386 -4.92317 295.187 -4.41508 295.944 -3.86786C298.623 -1.93183 300.731 0.949343 302.892 3.68122C304.065 5.16214 305.121 6.78754 306.359 8.18598C307.504 9.47848 308.807 10.5079 310.101 11.5445C312.806 13.7105 315.146 16.7621 318.161 18.2635C321.037 19.6968 324.206 19.6204 327.243 19.9154C328.885 20.0755 330.484 20.4969 332.109 20.8111C333.672 21.1139 335.242 21.3644 336.802 21.6876C337.831 21.9001 338.723 22.2373 339.567 23.0307C340.104 23.5364 340.583 24.1245 341.145 24.5935C341.787 25.1311 342.485 25.5543 343.175 25.9841C345.943 27.707 348.334 30.3414 350.47 33.1196C351.553 34.5283 352.514 36.0983 353.736 37.3294C355.148 38.7519 356.938 39.4515 358.622 40.2082C360.427 41.0191 362.212 41.8956 364.014 42.7137C365.777 43.5138 367.417 43.5697 369.257 43.2441C369.535 43.1947 369.535 42.5903 369.257 42.5409Z" fill="white"/>
</g>
<mask id="mask2_70402_1775" style="mask-type:alpha" maskUnits="userSpaceOnUse" x="256" y="0" width="42" height="74">
<path d="M256.069 0H297.065V73.7354H256.069V0Z" fill="white"/>
</mask>
<g mask="url(#mask2_70402_1775)">
<path fill-rule="evenodd" clip-rule="evenodd" d="M258.6 73.1924C258.507 73.3423 258.425 73.5006 258.367 73.6764C258.458 73.5445 258.532 73.3748 258.6 73.1924Z" fill="white"/>
<path fill-rule="evenodd" clip-rule="evenodd" d="M296.919 19.0834C296.749 17.6277 296.369 16.2606 296.018 14.8742C295.944 14.5828 295.899 14.2662 295.823 13.9742C295.719 13.5787 295.563 13.132 295.388 12.7768C295.212 12.4186 295.121 11.9966 294.94 11.6457C294.778 11.3308 294.585 11.0244 294.402 10.7258C294.105 10.2388 293.845 9.94984 293.43 9.62235C292.924 9.22323 292.499 8.88189 291.927 8.63507C291.368 8.39367 290.812 8.11735 290.261 7.84826C289.863 7.65381 289.428 7.46599 289.087 7.1391C288.885 6.94466 288.996 6.82787 289.111 6.55516C289.421 5.81711 289.483 4.95143 289.72 4.17305C289.888 3.62402 290.024 3.0461 290.169 2.48504C290.423 1.49776 290.889 0.638707 291.157 -0.339543C291.293 -0.837397 291.369 -1.3515 291.536 -1.83672C291.726 -2.39236 291.895 -2.95583 292.071 -3.5175C292.152 -3.77455 292.213 -4.04485 292.307 -4.29288C292.347 -4.39883 292.421 -4.48732 292.42 -4.61073C292.199 -4.69561 291.722 -4.6914 291.475 -4.63421C291.12 -4.55174 291.095 -3.9979 291.029 -3.60599C290.772 -2.07752 290.631 -0.617065 290.045 0.791615C289.71 1.59589 289.32 2.36163 288.988 3.16771C288.499 4.35666 288.057 5.55705 287.401 6.63162C286.758 7.68451 285.987 8.68624 285.206 9.58262C284.873 9.96369 284.515 10.4062 284.081 10.5494C283.266 10.8185 282.446 11.2893 281.591 11.5048C280.632 11.7468 279.72 12.3151 278.738 12.3627C278.181 12.3891 277.609 12.3422 277.05 12.341C275.733 12.338 274.415 12.359 273.098 12.3428C272.423 12.335 271.755 12.2513 271.09 12.4463C269.822 12.8184 268.499 13.5883 267.291 14.1988C265.014 15.3504 262.832 16.8301 260.594 18.0967C261.314 17.8962 262.107 18.2918 262.827 18.361C264.915 18.5608 266.973 18.671 269.066 18.6608C271.366 18.6499 273.704 18.6379 275.943 17.8854C277.979 17.2015 279.467 15.3829 281.195 13.9297C282.225 13.0628 283.247 12.4524 284.336 11.7486C284.929 11.3651 285.394 10.6861 285.921 10.252C285.654 10.7373 285.481 11.2092 285.255 11.7065C284.807 12.6913 284.189 13.5715 283.572 14.3944C283.328 14.7195 283.081 15.0434 282.846 15.3799C282.545 15.8103 282.359 16.3413 282.072 16.7849C281.723 17.3255 281.407 17.8824 281.028 18.3941C280.814 18.6831 280.6 18.9949 280.414 19.3109C280.312 19.4855 280.265 19.6974 280.161 19.872C280.039 20.0773 279.918 20.1965 279.82 20.424C279.665 20.7888 279.461 21.079 279.29 21.4264C279.123 21.7623 278.964 22.1614 278.747 22.4522C278.571 22.6864 278.332 22.8031 278.123 22.9819C277.71 23.3359 277.288 23.673 276.85 23.9746C276.067 24.5134 275.709 25.6482 274.972 26.2616C274.04 27.0376 272.855 27.4 271.862 28.0393C270.57 28.8713 269.349 29.8796 268.059 30.7243C266.785 31.5598 265.348 31.847 264.119 32.8018C263.41 33.3526 262.735 33.9961 262.062 34.6138C261.26 35.3488 260.356 35.9629 259.595 36.7605C258.697 37.702 258.135 39.1474 257.424 40.2955C256.985 41.0022 256.455 41.6716 256.069 42.4241C256.834 42.0461 257.798 41.7607 258.624 41.6036C259.499 41.4381 260.225 41.3562 261.075 41.0173C262.01 40.6446 263.009 40.4923 263.926 40.0474C265.267 39.3973 266.5 38.4846 267.747 37.6178C268.849 36.852 270.077 36.5763 271.078 35.518C271.642 34.9208 272.055 34.1671 272.544 33.491C273.194 32.5923 274.047 31.8428 274.672 30.9301C275.163 30.2126 275.497 29.0549 275.91 28.2482C276.371 27.35 276.785 26.4386 277.295 25.5802C277.514 25.2117 277.797 24.6182 278.139 24.2154C277.708 25.5573 277.358 26.9395 277.104 28.3211C275.973 30.5641 274.907 32.9149 274.002 35.2946C273.081 37.7171 271.798 39.915 270.706 42.2237C269.885 43.961 268.845 45.351 267.775 46.8085C267.025 47.8307 266.5 49.0275 265.907 50.2014C265.058 51.8809 264.043 53.413 263.188 55.0872C261.8 57.804 261.156 60.9934 260.449 64.0648C259.991 66.0508 259.538 68.0368 259.164 70.0505C259.019 70.8307 258.94 72.2695 258.6 73.1923C258.829 72.8209 259.139 72.5145 259.417 72.2231C260.668 70.9108 261.983 69.7278 263.139 68.2746C265.067 65.8528 267.029 63.3593 268.19 60.2289C269.107 57.7589 269.504 55.0866 269.856 52.4179C270.068 50.807 270.247 49.1635 270.629 47.5965C270.896 46.4991 271.349 45.5256 271.727 44.4896C272.217 43.1453 272.997 42.0112 273.46 40.6585C273.814 39.6278 274.031 38.4371 274.182 37.3384C274.308 36.4204 274.318 35.8003 274.722 34.9828C274.977 34.4681 275.088 33.9251 275.313 33.3953C275.731 32.4129 276.412 31.7284 276.832 30.7917C276.939 31.1517 276.844 31.4942 276.868 31.8699C276.908 32.5062 277.075 33.1196 277.121 33.7619C277.331 36.6618 277.899 39.4834 278.181 42.3681C278.503 45.6653 279.089 48.886 279.941 52.0423C280.277 53.2854 280.675 54.4984 281.043 55.7259C281.266 56.3117 281.404 56.9251 281.458 57.5674C281.418 57.8576 281.469 58.1104 281.608 58.326C282.096 57.8064 282.249 56.724 282.401 56.0191C282.718 54.5532 283.083 53.0916 283.313 51.5986C283.601 49.7186 283.835 47.8674 283.839 45.9555C283.841 44.5805 283.617 43.6998 283.179 42.45C282.776 41.2966 282.183 40.334 281.735 39.2034C281.144 37.7117 281.163 36.1043 280.733 34.5548C280.532 33.963 280.363 33.3574 280.227 32.7373C280.117 32.0878 280.027 31.4346 279.96 30.7766C279.719 30.165 279.116 29.8742 278.789 29.2807C278.44 28.6449 278.017 27.9033 278.064 27.1213C278.101 26.5181 278.331 25.8896 278.486 25.2852C278.934 23.9289 279.419 22.5948 280.043 21.327C280.595 20.2043 281.235 19.146 281.964 18.1966C282.403 19.3741 283.234 20.4776 283.861 21.5329C284.831 23.1655 285.474 24.9938 286.234 26.7812C286.863 28.2609 287.572 29.752 287.979 31.3257C288.134 31.9234 288.478 32.3117 288.752 32.8204C289.153 33.5651 289.534 34.3465 289.853 35.1508C290.175 35.9641 290.587 36.8207 290.76 37.7093C290.892 38.3913 290.794 38.965 291.01 39.6513C291.351 40.7319 291.978 41.5205 292.198 42.6812C292.328 43.3669 292.348 44.2085 292.656 44.8189C293.369 43.7527 293.353 41.5133 293.452 40.1757C293.616 37.9657 293.762 35.7546 293.682 33.5338C293.614 31.6309 293.011 29.436 292.275 27.7444C291.515 25.998 290.058 24.6435 289.114 23.0445C288.313 21.6858 287.223 20.657 286.398 19.3236C285.891 18.5061 285.746 17.942 285.757 16.9126C285.774 15.2095 285.668 13.6238 286.077 11.9683C286.37 10.783 286.973 9.75238 287.298 8.5845C287.391 8.24979 287.414 7.78685 287.654 7.57375C288.118 7.94036 288.834 9.23707 289.09 9.61332C290.648 11.9081 292.025 14.5238 293.36 17.0173C295.094 20.2525 296.447 23.5195 296.811 27.4319C296.679 26.4898 296.967 24.6724 297.002 23.971C297.084 22.3227 297.111 20.7232 296.919 19.0834Z" fill="white"/>
</g>
<mask id="mask3_70402_1775" style="mask-type:alpha" maskUnits="userSpaceOnUse" x="-30" y="78" width="90" height="78">
<path d="M-29.2856 78.4684H59.3473V155.917H-29.2856V78.4684Z" fill="white"/>
</mask>
<g mask="url(#mask3_70402_1775)">
<path fill-rule="evenodd" clip-rule="evenodd" d="M-22.1681 127.828C-20.9172 129.803 -19.5401 131.644 -18.1937 133.517C-19.9308 131.584 -21.8609 129.706 -23.8908 128.545C-26.0518 127.309 -27.8619 125.557 -30.1385 124.558C-31.5344 123.945 -32.9657 124.087 -34.3937 124.024C-33.4764 122.765 -32.5174 121.55 -31.5632 120.371C-30.5523 119.123 -29.4497 118.011 -28.399 116.823C-26.7598 120.832 -24.4092 124.29 -22.1681 127.828ZM56.5144 79.1908C54.1538 79.6544 51.7682 79.8073 49.408 80.3021C44.6296 81.3051 39.8138 82.193 35.0618 83.3862C32.8855 83.9328 30.7101 84.5673 28.5223 85.0369C25.9975 85.5793 23.4583 85.5732 20.9479 86.2674C16.0956 87.6086 11.3647 89.5031 6.69667 91.6318C3.10051 93.2716 -0.530686 95.0265 -4.02557 96.9878C-7.83965 99.1285 -11.3153 101.983 -15.0752 104.258C-16.8195 105.313 -18.6713 106.013 -20.4473 106.968C-23.5438 108.634 -26.551 110.949 -29.3014 113.375C-33.4548 117.039 -36.9185 121.69 -40.3088 126.389L-40.3611 134.488C-39.8825 133.124 -39.0857 131.953 -38.419 130.729C-37.8171 129.623 -37.267 128.473 -36.6329 127.395C-36.3468 126.909 -36.0401 126.438 -35.7324 125.967C-34.6928 127.339 -33.4073 128.385 -32.1459 129.688C-29.7795 132.133 -27.7054 134.97 -25.519 137.652C-24.6075 138.77 -23.5913 139.741 -22.5305 140.625C-20.6014 142.232 -18.7294 144.086 -16.5862 145.209C-14.3552 146.378 -12.2105 147.767 -9.99436 148.972C-9.45868 149.264 -8.90285 149.582 -8.33789 149.893C-7.53197 150.878 -6.67612 151.795 -5.74204 152.618C-4.85068 153.403 -3.91948 154.146 -2.9758 154.829C-2.42908 155.224 -1.67884 155.91 -1.00828 155.917C0.260355 155.931 -0.208125 154.683 -0.634365 153.714C-1.48636 151.778 -2.15789 149.704 -3.05357 147.792C-4.45901 144.793 -6.17452 142.254 -7.92748 139.587C-9.83788 136.681 -11.4416 133.452 -13.194 130.396C-14.2894 128.487 -15.6564 126.811 -16.8195 124.954C-17.5995 123.709 -18.3593 122.408 -19.3649 121.436C-20.1761 120.652 -20.8193 119.691 -21.6032 118.866C-22.3726 118.056 -23.2448 117.849 -24.1145 117.275C-25.0241 116.674 -26.0158 116.051 -26.8366 115.273C-26.8678 115.243 -26.8928 115.219 -26.923 115.19C-26.2932 114.627 -25.6083 114.207 -24.9358 113.64C-24.1625 112.988 -23.3921 112.307 -22.6294 111.612C-22.592 112.178 -22.5387 112.799 -22.3246 113.208C-21.9171 113.987 -20.7612 114.624 -20.191 115.187C-17.5688 117.778 -15.1313 120.675 -12.5326 123.31C-10.3284 125.545 -8.15644 127.813 -5.83516 129.858C-3.76204 131.685 -1.46669 132.505 0.773954 133.916C2.47459 134.988 3.98275 136.325 5.74435 137.271C7.06915 137.983 8.39155 138.705 9.70963 139.436C11.0292 140.169 12.3669 140.824 13.709 141.486C14.2965 141.777 15.1975 142.477 15.7504 142.495C15.7437 141.756 14.9508 141.166 14.5797 140.721C12.9981 138.821 11.4564 136.922 9.69475 135.285C7.91731 133.633 6.27475 131.856 4.80691 129.77C3.68755 128.179 2.7122 126.519 1.34516 125.241C-0.652125 123.374 -2.27116 121.161 -4.0558 119.038C-4.71052 118.26 -5.41853 117.576 -6.04493 116.762C-6.65789 115.965 -7.13069 115.814 -7.89341 115.367C-8.64845 114.923 -9.29597 114.39 -10.1172 114.102C-10.927 113.818 -11.5976 113.251 -12.4145 113.019C-13.3673 112.748 -14.3398 112.757 -15.2849 112.43C-16.1849 112.118 -16.9827 111.914 -17.9086 111.786C-19.1878 111.61 -20.31 111.044 -21.4832 110.552C-20.9878 110.087 -20.4958 109.62 -20.0115 109.15C-19.423 108.579 -18.8451 108.302 -18.2235 107.865C-16.7216 106.809 -15.403 105.711 -13.7825 104.916C-12.7078 104.389 -11.6321 103.865 -10.5579 103.336C-9.79421 105.797 -9.06797 108.284 -8.26637 110.725C-7.59389 112.772 -6.51148 114.243 -5.50876 116.022C-4.49692 117.818 -3.49852 119.693 -2.2222 121.23C-0.624764 123.151 1.21748 124.705 3.01124 126.305C5.40788 128.443 7.54243 130.994 10.2492 132.516C13.2463 134.202 16.1728 135.12 19.373 135.957C20.2576 136.188 22.4565 137.473 23.2087 136.387C23.1069 135.984 22.8343 136.023 22.612 135.757C22.1368 135.189 21.7207 134.531 21.2786 133.911C20.2197 132.427 19.072 131.075 17.8725 129.77C14.9796 126.625 12.0645 123.523 9.21571 120.314C5.46595 116.09 2.36851 110.752 -1.92605 107.379C-3.57485 106.083 -5.16749 104.567 -6.85949 103.379C-7.42781 102.979 -7.91021 102.65 -8.39837 102.491C-8.12861 102.492 -7.84925 102.568 -7.51949 102.756C-5.78765 103.741 -4.24637 104.882 -2.65901 106.13C-1.83917 106.775 -0.912765 106.746 -0.0938852 107.481C0.432675 107.954 0.850276 108.691 1.37012 109.108C2.05508 109.657 2.78995 109.975 3.46195 110.604C4.06339 111.167 4.68883 111.967 5.29987 112.428C6.54883 113.37 7.67059 114.381 9.05971 114.947C10.084 115.363 11.3042 116.163 12.2349 116.807C13.0644 117.381 14.0412 117.625 14.8956 118.181C15.6463 118.669 16.1061 119.064 16.9437 119.317C17.764 119.565 18.4821 120.028 19.2861 120.33C19.9749 120.589 20.7141 120.687 21.4216 120.837C22.4109 121.047 23.2404 121.575 24.2004 121.818C27.3165 122.609 30.7164 122.82 33.8944 122.749C34.6663 122.731 36.0732 123.091 36.7701 122.581C37.0173 122.399 37.0303 121.978 37.3264 121.783C36.8325 121.286 36.0554 121.059 35.502 120.679C34.3332 119.876 33.1764 119.016 32.0508 118.123C28.8789 115.607 25.5127 113.371 22.1575 111.263C19.7498 109.75 17.1578 108.851 14.6503 107.644C11.8946 106.318 9.47299 104.347 6.84355 102.701C4.89955 101.485 2.85427 100.751 0.868513 99.6823C0.613153 99.5451 0.275714 99.2736 -0.0727658 99.0954C1.02451 99.0171 2.07379 98.6938 3.22771 99.0045C4.44355 99.3326 5.41459 99.4102 6.64435 99.4295C8.07715 99.4518 9.33859 100.266 10.624 100.97C13.1436 102.351 15.5844 103.502 18.2306 104.437C19.8909 105.023 21.4653 105.722 23.2048 105.803C24.82 105.879 26.0781 105.94 27.6448 106.414C30.4836 107.274 33.1572 106.496 36.0372 106.634C39.4624 106.799 42.6405 107.126 46.038 106.303C47.9695 105.835 49.9716 105.508 51.8858 104.973C52.2616 104.867 53.8672 104.435 54.0002 103.875C52.9572 102.547 51.2632 102.238 49.8823 101.913C47.7818 101.42 45.7548 100.771 43.6869 100.121C41.9685 99.58 40.3682 98.9413 38.7127 98.1683C36.7423 97.249 34.602 96.9866 32.573 96.331C29.7568 95.4214 27.2772 95.6465 24.3703 95.8879C21.654 96.1131 18.8964 95.6116 16.1752 95.5622C13.3836 95.5117 10.6471 95.0024 7.86355 94.7574C7.02739 94.6839 6.16771 94.5111 5.36275 94.7531C6.10291 94.4672 6.88148 94.3293 7.63796 94.1084C9.60404 93.5329 11.632 93.4799 13.5885 92.8267C14.7717 92.4312 15.9468 91.8858 17.1722 91.7462C17.9536 91.6577 18.7389 91.7636 19.518 91.6089C21.0069 91.3121 22.0701 90.7812 23.6162 91.0424C25.5444 91.3693 27.5613 91.1436 29.5188 91.2694C31.4714 91.3946 33.3007 90.9618 35.2192 90.6842C36.5416 90.4934 37.7527 90.3802 39.0501 89.9299C39.8628 89.6476 40.6586 89.8071 41.4924 89.7553C43.2477 89.6458 44.7564 88.0673 46.2636 87.1806C46.9029 86.8043 47.6138 86.6255 48.2541 86.2547C48.9914 85.8285 49.5444 85.0718 50.1789 84.4547C51.3616 83.3049 52.7455 82.9545 54.0588 82.1364C54.7476 81.7078 55.3644 81.1389 56.0757 80.7585C56.5821 80.4876 57.1586 80.3389 57.652 80.0276C58.0135 79.8001 59.3757 78.9169 59.3474 78.4684C58.4119 78.5593 57.4456 79.0084 56.5144 79.1908Z" fill="#ACCEB0"/>
</g>
</g>
<defs>
<clipPath id="clip0_70402_1775">
<rect width="360" height="301" fill="white"/>
</clipPath>
</defs>
</svg>
