<svg width="1440" height="841" viewBox="0 0 1440 841" fill="none" xmlns="http://www.w3.org/2000/svg">
<g clip-path="url(#clip0_70443_1154)">
<mask id="mask0_70443_1154" style="mask-type:alpha" maskUnits="userSpaceOnUse" x="0" y="0" width="520" height="259">
<path d="M0 0H519.416V258.631H0V0Z" fill="white"/>
</mask>
<g mask="url(#mask0_70443_1154)">
<path fill-rule="evenodd" clip-rule="evenodd" d="M515.981 -9.2409C515.681 -7.88352 513.475 -7.16699 512.233 -6.60857C510.526 -5.84157 508.789 -5.14691 507.172 -4.23695C502.395 -1.55079 497.935 1.20096 492.789 3.35055C490.447 4.32948 488.087 5.27813 485.783 6.32265C483.233 7.47818 480.851 8.91797 478.211 9.91204C473.343 11.7454 468.376 12.9094 463.693 15.1582C453.832 19.8947 444.885 26.0979 434.757 30.3752C429.94 32.4105 425.689 34.7501 421.369 37.5036C416.886 40.3596 412.276 42.7968 407.46 45.1836C398.302 49.7199 390.397 55.9416 381.174 60.3855C371.754 64.9235 362.231 69.2227 353.647 74.9499C350.285 77.1937 346.925 79.599 344.442 82.6283C342.321 85.2152 341.952 88.5657 339.6 90.9979C332.125 98.7267 322.274 104.705 315.166 112.716C313.636 114.44 312.349 116.304 310.934 118.097C309.423 120.009 307.569 121.62 305.754 123.306C302.122 126.683 298.979 130.382 295.571 133.926C288.29 141.498 280.284 148.542 273.516 156.49C270.574 159.943 267.863 164.385 263.766 166.901C260.653 168.816 256.504 168.361 253.428 170.592C251.687 171.855 250.502 173.128 248.212 173.677C246.215 174.156 244.109 174.363 242.087 174.783C236.577 175.93 231.009 176.28 225.608 177.888C220.589 179.384 215.783 181.363 210.829 183.007C206.083 184.581 201.398 185.491 196.385 186.093C191.716 186.653 188.06 188.687 183.873 190.419C178.86 192.491 173.355 193.509 168.111 195.04C162.945 196.545 158.289 198.498 153.433 200.614C150.897 201.721 148.276 202.555 145.436 202.775C142.669 202.987 139.885 202.802 137.121 203.051C131.94 203.517 127.075 204.997 121.824 205.021C116.377 205.044 110.98 205.715 105.644 206.642C94.5005 208.575 83.6794 211.069 73.0695 214.638C63.0586 218.006 52.8231 220.914 42.8832 224.423C22.4967 231.62 3.80929 241.909 -14.2176 252.82C-18.5875 255.464 -22.9229 258.152 -27.2448 260.853C-28.487 261.63 -27.3197 263.44 -26.0352 262.67C-7.72799 251.674 10.8595 240.999 30.8986 232.557C41.0899 228.263 51.6538 225.302 62.2407 221.913C72.505 218.626 82.5754 214.801 93.2794 212.707C98.928 211.602 104.584 210.443 110.3 209.633C115.937 208.832 121.603 209.195 127.217 208.507C129.458 208.233 131.654 207.767 133.87 207.382C136.921 206.849 139.907 206.814 143.005 206.768C148.26 206.693 152.715 205.408 157.352 203.312C167.065 198.917 177.986 197.603 187.732 193.376C189.896 192.438 191.988 191.255 194.333 190.692C196.629 190.14 199.037 190.084 201.379 189.762C206.621 189.042 211.597 187.39 216.493 185.654C221.38 183.922 226.23 182.05 231.358 180.916C233.971 180.337 236.636 180.045 239.293 179.673C242.003 179.296 244.627 178.618 247.332 178.247C249.258 177.984 251.124 177.559 252.839 176.706C254.865 175.698 256.138 173.877 258.301 173.086C259.874 172.511 261.6 172.383 263.217 171.944C265.144 171.421 266.776 170.496 268.26 169.308C271.93 166.37 274.629 162.51 277.565 159.033C281.013 154.951 284.888 151.145 288.747 147.36C292.57 143.613 296.44 139.899 300.106 136.03C303.558 132.385 306.852 128.71 310.589 125.274C314.141 122.007 316.485 118.088 319.822 114.701C323.595 110.872 327.997 107.428 332.11 103.88C336.108 100.432 340.671 97.1069 344.091 93.1996C346.297 90.6783 346.662 87.4051 348.824 84.8704C351.427 81.8175 355.139 79.3837 358.639 77.1752C363.274 74.2502 368.15 71.6364 373.121 69.1739C377.967 66.7737 383.002 64.646 387.711 62.0456C392.231 59.5495 396.491 56.7221 400.852 54.0275C405.285 51.2876 409.922 49.0169 414.591 46.62C419.364 44.171 423.663 41.14 428.187 38.3664C432.432 35.761 437.278 34.1698 441.771 31.9462C446.698 29.5073 451.327 26.5638 456.117 23.9231C460.904 21.2824 465.809 18.3876 471.039 16.4651C473.434 15.5871 475.933 14.953 478.345 14.1154C481.01 13.1903 483.377 11.9439 485.854 10.6958C490.522 8.34273 495.552 6.59177 500.218 4.23865C504.463 2.09578 508.143 -0.775391 512.509 -2.73997C515.226 -3.96278 518.742 -5.53209 519.379 -8.42008C519.807 -10.3611 516.411 -11.1937 515.981 -9.2409Z" fill="#ACCEB0"/>
</g>
<path fill-rule="evenodd" clip-rule="evenodd" d="M1463.76 506.635C1458.28 506.884 1454.34 509.108 1450.32 512.209C1445.01 516.308 1439.29 519.935 1434.07 524.138C1422.92 533.113 1411.95 542.534 1402.42 552.855C1397.84 557.807 1393.53 562.971 1389.76 568.42C1385.95 573.932 1383.09 579.878 1378.92 585.213C1370.89 595.517 1360.01 603.88 1349.72 612.391C1344.37 616.808 1339.79 621.909 1334.22 626.114C1328.57 630.38 1322.08 633.672 1316.43 637.957C1311.17 641.937 1303.91 642.437 1298.31 646.021C1292.95 649.449 1287.43 652.545 1282.89 656.818C1280.48 659.08 1278.07 660.923 1274.9 662.345C1271.66 663.803 1268.42 665.081 1265.64 667.211C1262.97 669.258 1260.86 671.788 1258.25 673.888C1255.01 676.494 1251.39 678.739 1247.71 680.843C1241.79 684.238 1235.57 687.758 1228.73 689.529C1225.13 690.459 1221.43 691.228 1217.73 691.758C1213.26 692.399 1208.75 692.195 1204.27 692.663C1200.51 693.055 1196.8 693.729 1193.04 694.119C1189.14 694.525 1185.33 694.338 1181.42 694.316C1174.5 694.278 1168.98 697.554 1162.31 698.546C1154.54 699.704 1146.7 700.119 1138.92 701.365C1130.97 702.64 1122.86 702.05 1114.83 702.518C1107.18 702.963 1099.59 703.993 1092.05 705.207C1088.33 705.806 1084.58 706.364 1080.94 707.261C1077.14 708.196 1073.4 709.448 1069.45 709.843C1053.7 711.414 1037.54 708.332 1021.84 710.766C1014.65 711.881 1007.45 711.999 1000.25 713.161C996.876 713.706 993.4 713.622 990.079 714.416C986.774 715.207 983.653 716.611 980.794 718.244C975.299 721.383 970.785 726.569 963.913 727.149C957.016 727.731 950.031 727.12 943.106 727.741C928.001 729.095 912.23 732.414 898.103 737.28C891.817 739.446 885.688 742.105 879.533 744.558C872.895 747.203 867.166 751.136 860.757 754.133C847.156 760.493 831.729 764.02 817.582 769.369C810.762 771.946 804.129 774.839 797.785 778.226C791.795 781.424 786.409 785.477 780.326 788.507C777.717 789.808 775.012 790.962 772.65 792.606C769.546 794.765 766.917 797.379 763.768 799.498C757.805 803.513 751.367 807.01 744.77 810.164C738.152 813.326 731.318 816.123 724.408 818.761C717.329 821.464 709.878 825.319 702.215 826.427C699.508 826.817 696.73 827.031 694.339 828.314C691.851 829.647 690.495 832.454 687.792 833.434C685.463 834.279 686.476 837.65 688.848 836.792C691.121 835.969 692.477 834.711 694.126 833.142C696.91 830.493 700.011 830.323 703.841 829.719C710.7 828.636 717.477 825.191 723.83 822.777C737.896 817.432 751.726 811.612 764.141 803.645C769.726 800.062 774.219 795.541 780.311 792.579C786.378 789.628 791.716 785.783 797.58 782.541C810.749 775.259 825.172 770.359 839.685 765.559C846.676 763.246 853.805 761.05 860.573 758.259C867.137 755.553 872.807 751.479 879.295 748.647C892.815 742.746 906.818 737.934 921.552 734.952C929.317 733.379 937.165 731.832 945.132 731.337C951.832 730.92 958.71 731.69 965.359 730.947C971.649 730.245 975.564 726.533 980.467 723.42C983.439 721.533 986.63 719.782 990.144 718.786C993.625 717.799 997.336 717.926 1000.93 717.408C1008.35 716.335 1015.76 716.11 1023.17 714.98C1030.94 713.795 1039.03 714.337 1046.9 714.329C1054.68 714.319 1062.73 715.077 1070.47 714.211C1077.96 713.373 1085.25 710.86 1092.71 709.659C1100.75 708.366 1108.84 707.291 1117.03 706.948C1124.59 706.63 1132.12 706.995 1139.63 705.888C1143.54 705.311 1147.32 704.548 1151.29 704.243C1154.99 703.959 1158.71 703.779 1162.39 703.325C1169.49 702.449 1175.45 699.09 1182.73 699.339C1190.56 699.606 1197.92 698.306 1205.69 697.887C1209.53 697.679 1213.37 697.926 1217.21 697.568C1221.26 697.189 1225.28 696.525 1229.24 695.709C1236.02 694.315 1241.91 691.457 1247.81 688.301C1254.38 684.786 1260.96 680.912 1266.24 675.952C1268.81 673.535 1271.14 671.303 1274.51 669.729C1277.73 668.225 1281 667.056 1283.87 665.029C1286.32 663.297 1288.31 661.188 1290.54 659.253C1293.05 657.075 1296.18 655.777 1298.96 653.904C1301.76 652.019 1304.35 650.175 1307.66 649.013C1310.57 647.994 1313.6 647.277 1316.38 645.981C1319.41 644.568 1321.66 642.416 1324.25 640.491C1327.24 638.259 1330.57 636.415 1333.73 634.383C1339.88 630.432 1344.79 625.642 1349.95 620.764C1354.63 616.335 1359.8 612.319 1364.67 608.051C1374.63 599.315 1383.71 589.777 1389.66 578.5C1396.06 566.355 1405.17 555.499 1415.31 545.555C1425.48 535.583 1436.29 525.842 1448.08 517.345C1453.07 513.747 1456.81 509.288 1463.76 508.871C1465.38 508.773 1465.41 506.563 1463.76 506.635Z" fill="#ACCEB0"/>
<path fill-rule="evenodd" clip-rule="evenodd" d="M1335.37 255.117C1336.47 259.671 1336.26 264.582 1334.65 267.946C1330.2 277.192 1316.8 279.352 1309.5 271.453C1305.93 267.598 1303.17 262.542 1305 257.45C1305.84 255.09 1308.28 252.115 1310.13 250.295C1313.86 246.648 1322.72 241.364 1328.4 244.531C1331.93 246.506 1334.28 250.638 1335.37 255.117Z" fill="#ACCEB0"/>
<path fill-rule="evenodd" clip-rule="evenodd" d="M1309.06 307.355C1319.52 305.946 1320.99 314.918 1319.96 321.925C1319.44 325.398 1319.27 329.844 1315.14 330.982C1309.83 332.441 1303.7 330.996 1301.34 326.318C1298.39 320.498 1300.19 315.516 1304.03 310.63C1305.44 308.83 1306.47 307.703 1309.06 307.355Z" fill="#ACCEB0"/>
<path fill-rule="evenodd" clip-rule="evenodd" d="M1256.95 204.839C1267.41 203.43 1268.88 212.401 1267.85 219.409C1267.33 222.882 1267.16 227.327 1263.03 228.464C1257.72 229.924 1251.59 228.478 1249.22 223.802C1246.28 217.982 1248.07 212.998 1251.91 208.114C1253.33 206.312 1254.36 205.187 1256.95 204.839Z" fill="#ACCEB0"/>
<path fill-rule="evenodd" clip-rule="evenodd" d="M1248.42 298.397C1258.84 298.669 1259.77 311.767 1255.7 319.052C1253.24 323.472 1249.75 323.94 1245.39 325.533C1239.91 327.534 1233.98 328.471 1228.82 324.772C1220.91 319.092 1232.14 309.261 1235.72 304.864C1237.47 302.708 1239.11 300.661 1241.73 299.588C1243.76 298.752 1246.25 298.34 1248.42 298.397Z" fill="#ACCEB0"/>
<path fill-rule="evenodd" clip-rule="evenodd" d="M1334.11 383.927C1333.42 392.67 1322.63 412.527 1309.91 401.598C1303.16 395.791 1306.88 385.94 1312.59 380.896C1315 378.768 1316.47 376.194 1318.69 373.976C1320.04 372.624 1321.91 371.234 1323.8 370.503C1333.46 366.752 1334.55 378.411 1334.11 383.927Z" fill="#ACCEB0"/>
<path fill-rule="evenodd" clip-rule="evenodd" d="M1273.23 343.086C1282.66 345.375 1283.73 353.624 1279.78 360.426C1278.28 363.014 1276.16 367.567 1273.35 369.275C1269.65 371.529 1263.24 370.104 1259.72 368.282C1253.28 364.96 1253.49 359.159 1255.72 353.56C1257.43 349.232 1260.4 344.527 1265.7 343.027C1268.16 342.329 1270.77 342.486 1273.23 343.086Z" fill="#ACCEB0"/>
<path fill-rule="evenodd" clip-rule="evenodd" d="M1193.34 393.4C1191.06 401.566 1184.44 407.197 1174.53 405.034C1171.83 404.444 1165.28 402.979 1163.67 400.636C1162.18 398.469 1162.92 394.305 1163.58 391.889C1164.92 386.983 1169.07 384.14 1172.64 380.495C1176.59 376.459 1181.23 375.056 1187.44 378.058C1193.64 381.064 1194.88 387.836 1193.34 393.4Z" fill="#ACCEB0"/>
<path fill-rule="evenodd" clip-rule="evenodd" d="M1389.67 295.025C1391.75 300.341 1388.49 306.582 1385.49 311.123C1382.28 315.994 1375.29 315.047 1369.49 314.369C1366.9 310.307 1369.15 301.786 1371.78 297.956C1373.1 296.025 1375.12 294.808 1377.26 293.637C1381.5 291.326 1387.56 289.634 1389.67 295.025Z" fill="#ACCEB0"/>
<path fill-rule="evenodd" clip-rule="evenodd" d="M1391.03 257.403C1399.52 253.255 1409.17 242.602 1404.31 233.69C1400.95 227.546 1392.68 229.459 1387.41 232.384C1384.62 233.929 1381.23 236.178 1380.06 238.984C1378.11 243.656 1376.07 252.892 1379.25 256.482C1382.43 260.084 1386.84 259.447 1391.03 257.403Z" fill="#ACCEB0"/>
<path fill-rule="evenodd" clip-rule="evenodd" d="M1330.43 167.998C1325.23 172.005 1322.53 176.898 1327.18 182.325C1330.51 186.216 1336.8 189.94 1342.56 188.349C1352.59 185.577 1355.97 168.937 1346.79 163.738C1341.19 160.569 1334.41 164.93 1330.43 167.998Z" fill="#ACCEB0"/>
<path fill-rule="evenodd" clip-rule="evenodd" d="M1240.81 260.507C1245.99 259.033 1250.99 260.342 1252.96 265.023C1254.45 268.604 1254.42 273.835 1250.6 276.258C1247.31 278.346 1240.85 279.725 1236.87 280.093C1231.73 280.571 1229.81 277.747 1230.17 273.456C1230.48 269.749 1231.22 265.598 1234.67 263.104C1236.41 261.85 1238.69 261.109 1240.81 260.507Z" fill="#ACCEB0"/>
<path fill-rule="evenodd" clip-rule="evenodd" d="M1167 289.18C1175.69 288.897 1178.44 297.606 1178.37 303.736C1178.3 309.443 1172.75 318.441 1164.93 317.049C1153.1 314.939 1152.61 303.031 1157.55 295.349C1159.51 292.303 1162.75 289.319 1167 289.18Z" fill="#ACCEB0"/>
<path fill-rule="evenodd" clip-rule="evenodd" d="M220.366 649.832C221.468 654.386 221.259 659.297 219.642 662.661C215.195 671.907 201.798 674.067 194.492 666.168C190.927 662.313 188.17 657.257 189.992 652.164C190.836 649.805 193.273 646.83 195.13 645.01C198.852 641.364 207.719 636.079 213.393 639.246C216.925 641.219 219.281 645.353 220.366 649.832Z" fill="white"/>
<path fill-rule="evenodd" clip-rule="evenodd" d="M194.056 702.07C204.515 700.661 205.993 709.633 204.954 716.64C204.44 720.113 204.269 724.559 200.133 725.697C194.83 727.156 188.698 725.711 186.334 721.033C183.391 715.213 185.184 710.231 189.022 705.345C190.437 703.545 191.47 702.418 194.056 702.07Z" fill="white"/>
<path fill-rule="evenodd" clip-rule="evenodd" d="M141.944 599.554C152.404 598.145 153.88 607.116 152.844 614.124C152.329 617.597 152.156 622.042 148.022 623.179C142.717 624.639 136.585 623.193 134.221 618.517C131.28 612.697 133.071 607.713 136.911 602.829C138.324 601.027 139.359 599.902 141.944 599.554Z" fill="white"/>
<path fill-rule="evenodd" clip-rule="evenodd" d="M133.419 693.112C143.837 693.384 144.762 706.482 140.7 713.767C138.234 718.187 134.746 718.655 130.383 720.248C124.902 722.249 118.973 723.186 113.821 719.487C105.911 713.807 117.137 703.976 120.714 699.579C122.467 697.423 124.105 695.376 126.722 694.303C128.757 693.467 131.243 693.055 133.419 693.112Z" fill="white"/>
<path fill-rule="evenodd" clip-rule="evenodd" d="M219.108 778.642C218.415 787.385 207.625 807.242 194.909 796.313C188.152 790.506 191.873 780.655 197.587 775.611C199.995 773.483 201.468 770.909 203.687 768.691C205.039 767.339 206.907 765.949 208.792 765.218C218.46 761.467 219.546 773.126 219.108 778.642Z" fill="white"/>
<path fill-rule="evenodd" clip-rule="evenodd" d="M158.231 737.799C167.658 740.09 168.73 748.339 164.78 755.141C163.277 757.729 161.153 762.282 158.346 763.99C154.643 766.244 148.241 764.819 144.714 762.997C138.276 759.675 138.492 753.874 140.713 748.273C142.431 743.947 145.396 739.242 150.693 737.742C153.16 737.044 155.764 737.201 158.231 737.799Z" fill="white"/>
<path fill-rule="evenodd" clip-rule="evenodd" d="M78.3341 788.115C76.0608 796.281 69.4349 801.912 59.5277 799.749C56.8281 799.159 50.2752 797.694 48.6643 795.351C47.1725 793.184 47.9193 789.02 48.5779 786.604C49.9142 781.696 54.0691 778.855 57.6345 775.21C61.5859 771.173 66.2265 769.771 72.432 772.773C78.6413 775.779 79.8816 782.551 78.3341 788.115Z" fill="white"/>
<path fill-rule="evenodd" clip-rule="evenodd" d="M274.666 689.74C276.745 695.056 273.485 701.297 270.486 705.838C267.272 710.709 260.285 709.76 254.484 709.084C251.894 705.022 254.15 696.501 256.773 692.671C258.096 690.74 260.118 689.523 262.26 688.352C266.492 686.041 272.555 684.349 274.666 689.74Z" fill="white"/>
<path fill-rule="evenodd" clip-rule="evenodd" d="M276.027 652.118C284.517 647.97 294.171 637.317 289.302 628.405C285.944 622.261 277.674 624.173 272.402 627.098C269.616 628.644 266.231 630.893 265.058 633.699C263.103 638.371 261.066 647.607 264.242 651.196C267.427 654.799 271.841 654.162 276.027 652.118Z" fill="white"/>
<path fill-rule="evenodd" clip-rule="evenodd" d="M215.424 562.713C210.225 566.72 207.531 571.613 212.175 577.04C215.507 580.931 221.798 584.655 227.56 583.064C237.588 580.292 240.972 563.652 231.786 558.453C226.189 555.284 219.406 559.645 215.424 562.713Z" fill="white"/>
<path fill-rule="evenodd" clip-rule="evenodd" d="M125.806 655.222C130.986 653.748 135.99 655.057 137.952 659.738C139.452 663.319 139.417 668.55 135.6 670.973C132.311 673.061 125.843 674.44 121.87 674.808C116.726 675.286 114.804 672.462 115.167 668.171C115.48 664.464 116.212 660.311 119.67 657.819C121.409 656.564 123.688 655.824 125.806 655.222Z" fill="white"/>
<path fill-rule="evenodd" clip-rule="evenodd" d="M51.9936 683.895C60.6816 683.61 63.4348 692.321 63.3657 698.451C63.3004 704.158 57.7459 713.156 49.9257 711.764C38.0966 709.654 37.6089 697.746 42.5491 690.062C44.5075 687.018 47.7446 684.034 51.9936 683.895Z" fill="white"/>
<path fill-rule="evenodd" clip-rule="evenodd" d="M550.08 52.0311C560.54 50.6216 562.017 59.5933 560.98 66.6006C560.465 70.0739 560.294 74.5194 556.159 75.6581C550.854 77.1164 544.721 75.6716 542.358 70.9939C539.416 65.1742 541.208 60.1921 545.048 55.3059C546.463 53.5062 547.496 52.3792 550.08 52.0311Z" fill="white"/>
<path fill-rule="evenodd" clip-rule="evenodd" d="M489.445 43.0727C499.86 43.3452 500.788 56.443 496.725 63.7277C494.26 68.148 490.769 68.6156 486.409 70.2084C480.927 72.21 474.996 73.1469 469.847 69.4482C461.937 63.7681 473.163 53.9368 476.738 49.54C478.493 47.3837 480.131 45.3367 482.746 44.2636C484.781 43.4276 487.269 43.0156 489.445 43.0727Z" fill="white"/>
<path fill-rule="evenodd" clip-rule="evenodd" d="M575.134 128.602C574.441 137.345 563.649 157.203 550.932 146.273C544.176 140.467 547.897 130.616 553.613 125.571C556.02 123.444 557.491 120.87 559.711 118.652C561.064 117.299 562.931 115.91 564.816 115.178C574.483 111.427 575.572 123.087 575.134 128.602Z" fill="white"/>
<path fill-rule="evenodd" clip-rule="evenodd" d="M514.257 87.7618C523.682 90.051 524.755 98.2995 520.806 105.101C519.302 107.69 517.177 112.243 514.37 113.952C510.668 116.204 504.267 114.78 500.738 112.958C494.302 109.636 494.517 103.835 496.739 98.2356C498.455 93.9078 501.419 89.2032 506.719 87.7029C509.184 87.0049 511.788 87.1613 514.257 87.7618Z" fill="white"/>
<path fill-rule="evenodd" clip-rule="evenodd" d="M434.358 138.075C432.086 146.242 425.46 151.873 415.551 149.71C412.854 149.119 406.301 147.654 404.688 145.311C403.198 143.145 403.943 138.98 404.602 136.565C405.938 131.659 410.093 128.816 413.66 125.171C417.61 121.134 422.25 119.732 428.456 122.734C434.665 125.74 435.907 132.511 434.358 138.075Z" fill="white"/>
<path fill-rule="evenodd" clip-rule="evenodd" d="M630.689 39.7003C632.771 45.0171 629.509 51.2574 626.511 55.7988C623.295 60.6698 616.31 59.7229 610.51 59.0467C607.918 54.983 610.174 46.462 612.799 42.6321C614.122 40.7011 616.143 39.4834 618.286 38.3127C622.516 36.0016 628.581 34.3095 630.689 39.7003Z" fill="white"/>
<path fill-rule="evenodd" clip-rule="evenodd" d="M481.83 5.18229C487.01 3.70886 492.013 5.01746 493.976 9.69846C495.477 13.2794 495.441 18.5105 491.624 20.9342C488.337 23.0216 481.868 24.4025 477.896 24.7692C472.752 25.2469 470.83 22.4228 471.191 18.132C471.506 14.4249 472.237 10.2737 475.693 7.7793C477.435 6.52621 479.714 5.78445 481.83 5.18229Z" fill="white"/>
<path fill-rule="evenodd" clip-rule="evenodd" d="M408.017 33.8553C416.707 33.5728 419.46 42.2822 419.391 48.4114C419.326 54.1184 413.77 63.1171 405.951 61.7244C394.12 59.6152 393.635 47.7066 398.575 40.0249C400.531 36.9788 403.77 33.9949 408.017 33.8553Z" fill="white"/>
<path fill-rule="evenodd" clip-rule="evenodd" d="M286.579 -23.0922C286.245 -24.8162 283.505 -24.4798 282.962 -23.0922C280.869 -17.7316 280.082 -12.1104 277.538 -6.83396C275.071 -1.71396 271.642 3.10834 267.435 7.26961C259.438 15.1784 248.815 20.4128 237.663 24.1636C215.52 31.6115 190.518 34.1934 170.774 46.4383C149.495 59.637 139.371 81.8579 121.043 97.588C104.01 112.206 82.2662 121.863 59.4124 127.376C47.7638 130.187 35.7964 131.976 23.7676 132.917C11.6332 133.867 -0.493501 133.689 -12.6567 133.478C-15.6193 133.426 -18.5876 133.522 -21.554 133.507C-23.2513 133.499 -23.689 135.825 -21.9629 136.153C-9.70758 138.481 2.59386 138.891 15.1007 138.479C27.502 138.07 39.8668 136.768 51.9897 134.419C75.7555 129.813 98.6495 121.123 117.521 107.507C127.432 100.358 135.565 91.8557 142.992 82.7241C150.77 73.162 158.07 63.117 168.09 55.1847C186.758 40.4067 212.603 37.2294 235.511 30.0943C246.975 26.5235 258.121 21.8357 267.151 14.5594C276.724 6.84406 283.507 -3.61966 286.276 -14.7478C286.619 -16.127 287.04 -17.6004 287.128 -19.0116C287.213 -20.3438 286.833 -21.7752 286.579 -23.0922Z" fill="#50614A"/>
<path fill-rule="evenodd" clip-rule="evenodd" d="M10.0953 117.656C21.1315 116.931 32.1081 115.357 42.8448 113.007C63.6998 108.442 83.7811 100.394 100.091 87.972C108.685 81.4257 115.655 73.6599 121.828 65.3104C128.519 56.2596 134.738 46.8051 144.205 39.707C162.127 26.2695 186.292 22.3252 207.237 13.885C218.158 9.48485 228.664 3.54571 236.794 -4.28904C244.293 -11.5166 251.393 -21.7953 248.715 -31.9142C248.375 -33.1959 246.202 -33.1353 245.821 -31.9142C244.493 -27.6302 243.375 -23.188 241.307 -19.1125C239.299 -15.1548 236.477 -11.5233 233.192 -8.30061C226.07 -1.31359 217.029 4.00322 207.496 8.14262C187.369 16.8789 164.561 20.5104 145.937 31.9631C136.076 38.0267 128.759 46.0347 122.154 54.766C115.768 63.2079 109.697 71.702 101.474 78.8993C86.8224 91.7246 68.2041 100.066 48.6009 105.482C37.1673 108.64 25.4438 110.603 13.5993 112.129C1.54556 113.681 -10.6887 114.652 -22.8596 115.051C-24.6106 115.108 -24.5837 117.304 -22.8596 117.415C-11.8772 118.125 -0.892842 118.378 10.0953 117.656Z" fill="#50614A"/>
<path fill-rule="evenodd" clip-rule="evenodd" d="M91.4995 51.0773C87.5213 57.5985 83.1993 64.0775 77.3337 69.4515C70.7309 75.5033 62.4077 79.3854 53.328 81.8176C42.3936 84.7459 30.9177 85.9973 19.6454 87.4994C7.22302 89.1528 -4.95362 89.4589 -17.3165 87.348C-18.4071 87.1613 -19.2672 88.5473 -18.1248 89.03C-8.19842 93.2249 3.45406 93.3763 14.2233 92.6026C24.9581 91.8305 35.8041 90.3756 46.3334 88.3791C56.2579 86.4952 66.2169 83.5938 74.4461 78.2316C81.4675 73.6565 86.9337 67.6619 91.5187 61.1811C100.831 48.0178 106.762 32.5619 119.764 21.6457C134.362 9.38898 154.708 4.85262 172.372 -2.88794C181.693 -6.97183 190.656 -12.2903 197.595 -19.163C204.109 -25.6168 209.777 -34.19 208.331 -43.0827C208.063 -44.7361 205.135 -44.5561 204.714 -43.0827C203.668 -39.4126 202.712 -35.6449 200.92 -32.1816C199.156 -28.7706 196.744 -25.6235 193.93 -22.8112C187.935 -16.8233 180.413 -12.1591 172.435 -8.40826C155.61 -0.494453 136.6 3.67859 121.271 13.9977C107.076 23.5514 99.7286 37.5961 91.4995 51.0773Z" fill="#50614A"/>
<path fill-rule="evenodd" clip-rule="evenodd" d="M-18.7277 62.3989C-1.85095 63.9699 15.1507 65.1254 31.9046 62.0406C45.287 59.5782 58.3641 54.3976 68.2809 46.0145C73.2921 41.7792 77.3011 36.777 80.1983 31.2331C83.3779 25.1493 85.7721 18.6871 90.8812 13.5637C100.024 4.39175 113.409 -0.0739601 125.303 -5.80622C131.81 -8.94146 138.152 -12.6015 143.399 -17.2438C148.539 -21.7936 152.939 -27.4098 153.233 -33.9646C153.318 -35.84 150.466 -35.877 149.771 -34.375C147.366 -29.1726 144.376 -24.3822 139.793 -20.4026C135.141 -16.3608 129.61 -13.1868 123.896 -10.4216C112.441 -4.87439 99.9494 -0.726577 90.1535 7.11995C84.8793 11.3435 81.2582 16.4719 78.4031 22.1688C75.5347 27.8859 72.8678 33.6115 68.2406 38.4489C59.9404 47.123 48.1593 52.9292 35.8598 56.0628C18.2879 60.5386 -0.606787 60.3149 -18.7277 59.8372C-20.6458 59.7867 -20.5594 62.229 -18.7277 62.3989Z" fill="#50614A"/>
<path fill-rule="evenodd" clip-rule="evenodd" d="M-11.8657 38.2369C-3.5559 42.1173 6.43962 43.404 15.6038 41.3099C24.2265 39.3386 31.3689 34.6963 37.1519 28.8749C42.9695 23.0148 47.5487 16.3322 52.7654 10.0752C58.3334 3.39595 64.8691 -2.35312 73.3631 -6.1309C78.3628 -8.3545 83.5891 -9.54367 89.0284 -10.6117C93.9494 -11.5772 99.4521 -12.7311 102.14 -16.8368C102.683 -17.6644 101.775 -18.8586 100.658 -18.5256C96.4607 -17.2708 92.3443 -15.974 87.9955 -15.1548C83.3855 -14.2852 78.8735 -13.414 74.4998 -11.8261C66.0057 -8.74136 58.7193 -3.78787 52.846 2.38339C42.4243 13.3332 35.495 28.1516 20.4767 35.0815C11.063 39.4244 -0.756537 39.8819 -10.5409 36.2505C-12.0481 35.692 -13.3978 37.5204 -11.8657 38.2369Z" fill="#50614A"/>
<mask id="mask1_70443_1154" style="mask-type:alpha" maskUnits="userSpaceOnUse" x="1154" y="0" width="286" height="122">
<path d="M1154.6 0H1440V121.346H1154.6V0Z" fill="white"/>
</mask>
<g mask="url(#mask1_70443_1154)">
<path fill-rule="evenodd" clip-rule="evenodd" d="M1477.03 118.86C1474.02 118.488 1470.98 118.196 1467.98 117.752C1464.57 117.247 1461.55 116.155 1458.36 115.035C1451.93 112.775 1445.56 110.388 1439.09 108.198C1433.17 106.191 1426.59 104.412 1421.31 101.246C1416.59 98.4222 1412.9 94.3854 1409.11 90.7018C1405.12 86.8164 1400.79 83.1917 1396.29 79.7553C1391.52 76.1088 1386.52 72.3495 1381 69.6011C1376.15 67.1841 1370.7 65.4701 1366.33 62.3618C1362.55 59.6739 1359.1 57.0534 1354.38 55.7263C1349.51 54.3605 1344.16 53.9905 1339.13 53.3395C1332.31 52.4565 1325.52 51.4103 1318.71 50.4734C1306.62 48.8082 1294.17 49.587 1282.2 47.2339C1275.93 46.001 1270.42 43.7151 1265.12 40.5563C1259.97 37.4917 1255.18 33.9965 1250.03 30.937C1244.7 27.7664 1238.99 25.1021 1233.74 21.8222C1228.57 18.5978 1224.26 14.5021 1219.89 10.5091C1214.91 5.95422 1209.56 1.70549 1204.37 -2.67276C1199.5 -6.78525 1194.34 -10.3999 1188.45 -13.3181C1185.28 -14.8891 1181.99 -16.3811 1178.51 -17.3398C1175.56 -18.1488 1172.61 -18.28 1169.55 -18.4348C1166.46 -18.5912 1163.3 -18.8166 1160.22 -18.3524C1159.04 -18.1741 1157.97 -17.8528 1156.94 -17.3213C1155.68 -16.6687 1154.78 -15.7436 1153.2 -16.0278C1150.95 -16.4315 1149.97 -13.4645 1152.24 -12.9868C1154.41 -12.531 1156.07 -12.9464 1157.92 -13.9405C1160.4 -15.2709 1162.98 -15.1835 1165.8 -15.0304C1168.52 -14.8824 1171.41 -14.7832 1174.08 -14.3357C1177.54 -13.7555 1180.75 -12.3358 1183.78 -10.8069C1194.49 -5.3976 1202.92 2.65245 1211.57 10.2854C1216.26 14.4231 1220.48 18.9645 1225.44 22.8718C1230.02 26.483 1235.23 29.3593 1240.4 32.2557C1251.23 38.3075 1260.59 46.8335 1272.64 51.0285C1284.15 55.0333 1296.82 54.8197 1308.97 55.6439C1315.54 56.0913 1321.94 57.2687 1328.44 58.1467C1334.69 58.9927 1340.97 59.6924 1347.21 60.5957C1351.32 61.1894 1354.89 62.1313 1358.27 64.3482C1360.42 65.7611 1362.33 67.4044 1364.58 68.7147C1367.15 70.2167 1369.94 71.3992 1372.7 72.6001C1383.77 77.414 1393.34 84.7744 1401.88 92.5369C1406.21 96.4727 1410.06 100.859 1414.94 104.299C1420.59 108.274 1427.75 110.228 1434.49 112.342C1441.71 114.608 1448.85 117.057 1456.06 119.343C1463.11 121.578 1469.67 121.735 1477.03 120.825C1478.14 120.687 1478.14 118.998 1477.03 118.86Z" fill="white"/>
</g>
<mask id="mask2_70443_1154" style="mask-type:alpha" maskUnits="userSpaceOnUse" x="1024" y="0" width="165" height="207">
<path d="M1024.27 0H1188.26V206.018H1024.27V0Z" fill="white"/>
</mask>
<g mask="url(#mask2_70443_1154)">
<path fill-rule="evenodd" clip-rule="evenodd" d="M1034.4 204.501C1034.03 204.92 1033.7 205.362 1033.47 205.853C1033.83 205.485 1034.13 205.011 1034.4 204.501Z" fill="white"/>
<path fill-rule="evenodd" clip-rule="evenodd" d="M1187.68 53.3194C1186.99 49.2523 1185.48 45.4325 1184.07 41.5588C1183.78 40.7447 1183.6 39.86 1183.29 39.0442C1182.88 37.9392 1182.25 36.6911 1181.55 35.6987C1180.85 34.6979 1180.49 33.5189 1179.76 32.5382C1179.11 31.6586 1178.34 30.8024 1177.61 29.9682C1176.42 28.6074 1175.38 27.8001 1173.72 26.885C1171.7 25.7699 1170 24.8162 1167.71 24.1266C1165.47 23.4521 1163.25 22.68 1161.05 21.9282C1159.45 21.3849 1157.71 20.8601 1156.35 19.9468C1155.54 19.4035 1155.98 19.0772 1156.44 18.3153C1157.69 16.2531 1157.93 13.8344 1158.88 11.6596C1159.55 10.1256 1160.1 8.51088 1160.67 6.94326C1161.69 4.18478 1163.55 1.78456 1164.63 -0.948686C1165.17 -2.3397 1165.48 -3.77613 1166.14 -5.13182C1166.9 -6.68431 1167.58 -8.25866 1168.29 -9.82796C1168.61 -10.5462 1168.85 -11.3014 1169.23 -11.9944C1169.39 -12.2904 1169.68 -12.5377 1169.68 -12.8825C1168.8 -13.1196 1166.89 -13.1079 1165.9 -12.9481C1164.48 -12.7176 1164.38 -11.1702 1164.12 -10.0752C1163.09 -5.80462 1162.52 -1.72409 1160.18 2.21179C1158.84 4.45894 1157.28 6.59845 1155.95 8.85065C1154 12.1726 1152.23 15.5265 1149.6 18.5289C1147.03 21.4707 1143.95 24.2695 1140.82 26.774C1139.49 27.8387 1138.06 29.075 1136.33 29.4753C1133.06 30.2272 1129.78 31.5425 1126.36 32.1447C1122.53 32.8208 1118.88 34.4086 1114.95 34.5415C1112.72 34.6155 1110.43 34.4843 1108.2 34.481C1102.93 34.4725 1097.66 34.5314 1092.39 34.486C1089.69 34.4641 1087.02 34.2303 1084.36 34.7753C1079.29 35.8148 1074 37.9661 1069.17 39.6716C1060.06 42.8893 1051.33 47.0236 1042.38 50.5626C1045.25 50.0025 1048.43 51.1075 1051.31 51.301C1059.66 51.8594 1067.89 52.1672 1076.26 52.1386C1085.46 52.1083 1094.81 52.0747 1103.77 49.9722C1111.91 48.0614 1117.87 42.9801 1124.78 38.9198C1128.9 36.4977 1132.99 34.7921 1137.34 32.8259C1139.71 31.7544 1141.58 29.8571 1143.68 28.6444C1142.62 30.0001 1141.92 31.3188 1141.02 32.7081C1139.23 35.4599 1136.76 37.919 1134.29 40.2183C1133.31 41.1265 1132.32 42.0315 1131.38 42.9717C1130.18 44.1743 1129.43 45.6579 1128.29 46.8975C1126.89 48.4079 1125.63 49.9638 1124.11 51.3935C1123.25 52.2008 1122.4 53.0721 1121.66 53.9552C1121.25 54.4429 1121.06 55.035 1120.64 55.5228C1120.15 56.0963 1119.67 56.4294 1119.28 57.0652C1118.66 58.0845 1117.85 58.8952 1117.16 59.8657C1116.49 60.8043 1115.86 61.9194 1114.99 62.7318C1114.28 63.3861 1113.33 63.7124 1112.49 64.212C1110.84 65.201 1109.15 66.1429 1107.4 66.9856C1104.27 68.491 1102.83 71.6616 1099.89 73.3755C1096.16 75.5436 1091.42 76.5562 1087.45 78.3425C1082.28 80.667 1077.39 83.4843 1072.24 85.8442C1067.14 88.1788 1061.39 88.9811 1056.47 91.6488C1053.64 93.1878 1050.94 94.9859 1048.25 96.7116C1045.04 98.7653 1041.43 100.481 1038.38 102.71C1034.79 105.34 1032.54 109.379 1029.69 112.586C1027.94 114.561 1025.82 116.431 1024.27 118.534C1027.34 117.478 1031.19 116.68 1034.49 116.241C1037.99 115.779 1040.9 115.55 1044.3 114.603C1048.04 113.562 1052.04 113.136 1055.7 111.893C1061.07 110.077 1066 107.527 1070.99 105.105C1075.39 102.965 1080.31 102.195 1084.31 99.238C1086.57 97.5694 1088.22 95.4636 1090.17 93.5747C1092.78 91.0634 1096.19 88.9694 1098.69 86.4194C1100.65 84.4145 1101.99 81.18 1103.64 78.9261C1105.48 76.4166 1107.14 73.87 1109.18 71.4715C1110.05 70.4421 1111.19 68.7837 1112.56 67.6584C1110.83 71.4076 1109.43 75.2695 1108.41 79.1296C1103.89 85.3968 1099.63 91.965 1096.01 98.6139C1092.32 105.382 1087.19 111.523 1082.82 117.974C1079.54 122.828 1075.38 126.712 1071.1 130.784C1068.1 133.64 1066 136.984 1063.63 140.264C1060.23 144.956 1056.17 149.237 1052.75 153.915C1047.2 161.506 1044.62 170.417 1041.79 178.998C1039.96 184.547 1038.15 190.096 1036.65 195.723C1036.08 197.902 1035.76 201.922 1034.4 204.501C1035.31 203.463 1036.55 202.607 1037.67 201.793C1042.67 198.126 1047.93 194.821 1052.56 190.761C1060.27 183.994 1068.12 177.027 1072.76 168.281C1076.43 161.379 1078.02 153.913 1079.42 146.457C1080.27 141.956 1080.99 137.364 1082.52 132.986C1083.58 129.919 1085.4 127.2 1086.91 124.305C1088.87 120.549 1091.99 117.38 1093.84 113.601C1095.25 110.721 1096.12 107.394 1096.73 104.324C1097.23 101.759 1097.27 100.027 1098.89 97.7427C1099.91 96.3046 1100.35 94.7874 1101.25 93.3072C1102.92 90.5622 1105.65 88.6498 1107.33 86.0326C1107.75 87.0384 1107.38 87.9955 1107.47 89.045C1107.63 90.8229 1108.3 92.5369 1108.49 94.3316C1109.32 102.434 1111.59 110.317 1112.72 118.377C1114.01 127.59 1116.36 136.588 1119.77 145.407C1121.11 148.881 1122.7 152.27 1124.17 155.699C1125.06 157.336 1125.62 159.05 1125.83 160.845C1125.67 161.655 1125.87 162.362 1126.43 162.964C1128.38 161.512 1129 158.488 1129.61 156.518C1130.87 152.423 1132.33 148.339 1133.25 144.168C1134.41 138.915 1135.34 133.743 1135.36 128.4C1135.37 124.559 1134.47 122.098 1132.72 118.606C1131.1 115.383 1128.73 112.694 1126.94 109.535C1124.57 105.367 1124.65 100.876 1122.93 96.5468C1122.13 94.8934 1121.45 93.2013 1120.91 91.4688C1120.47 89.6539 1120.11 87.829 1119.84 85.9905C1118.88 84.2816 1116.46 83.4692 1115.16 81.8108C1113.76 80.0346 1112.07 77.9623 1112.26 75.7774C1112.4 74.0921 1113.32 72.3361 1113.94 70.6473C1115.74 66.8578 1117.67 63.1305 1120.17 59.5882C1122.38 56.4512 1124.94 53.4943 1127.85 50.8418C1129.61 54.1318 1132.94 57.2149 1135.44 60.1634C1139.32 64.725 1141.9 69.8332 1144.93 74.8271C1147.45 78.9614 1150.29 83.1278 1151.92 87.5245C1152.54 89.1947 1153.91 90.2796 1155.01 91.7009C1156.61 93.7816 1158.14 95.9648 1159.41 98.2119C1160.7 100.484 1162.35 102.878 1163.04 105.36C1163.57 107.266 1163.17 108.869 1164.04 110.787C1165.4 113.806 1167.91 116.009 1168.79 119.252C1169.31 121.168 1169.39 123.519 1170.62 125.225C1173.48 122.246 1173.41 115.989 1173.81 112.252C1174.46 106.077 1175.05 99.899 1174.73 93.6941C1174.45 88.3773 1172.04 82.2447 1169.1 77.5183C1166.06 72.6388 1160.23 68.8543 1156.46 64.3869C1153.25 60.5906 1148.89 57.7161 1145.59 53.9905C1143.57 51.7063 1142.98 50.1303 1143.03 47.2541C1143.1 42.4957 1142.67 38.0653 1144.31 33.4398C1145.48 30.1279 1147.89 27.2484 1149.19 23.9853C1149.57 23.0501 1149.66 21.7566 1150.62 21.1612C1152.47 22.1855 1155.34 25.8086 1156.36 26.8598C1162.59 33.2716 1168.1 40.5799 1173.44 47.5467C1180.37 56.5858 1185.79 65.714 1187.25 76.6453C1186.72 74.013 1187.87 68.935 1188.01 66.9755C1188.34 62.3702 1188.45 57.9011 1187.68 53.3194Z" fill="white"/>
</g>
<mask id="mask3_70443_1154" style="mask-type:alpha" maskUnits="userSpaceOnUse" x="-118" y="219" width="356" height="217">
<path d="M-117.143 219.242H237.389V435.635H-117.143V219.242Z" fill="white"/>
</mask>
<g mask="url(#mask3_70443_1154)">
<path fill-rule="evenodd" clip-rule="evenodd" d="M-88.6731 357.153C-83.6696 362.672 -78.1611 367.817 -72.7755 373.05C-79.724 367.649 -87.4443 362.401 -95.564 359.158C-104.208 355.705 -111.448 350.81 -120.555 348.016C-126.138 346.304 -131.864 346.701 -137.576 346.524C-133.906 343.007 -130.07 339.613 -126.253 336.32C-122.21 332.831 -117.8 329.725 -113.597 326.406C-107.04 337.608 -97.6376 347.268 -88.6731 357.153ZM226.057 221.261C216.615 222.556 207.072 222.983 197.632 224.366C178.518 227.168 159.255 229.649 140.247 232.983C131.541 234.51 122.84 236.283 114.088 237.595C103.989 239.11 93.8325 239.093 83.7909 241.033C64.3816 244.78 45.4581 250.073 26.7861 256.021C12.4014 260.603 -2.12335 265.506 -16.1029 270.986C-31.3592 276.967 -45.2619 284.943 -60.3013 291.299C-67.2785 294.246 -74.6859 296.202 -81.7899 298.872C-94.1758 303.526 -106.205 309.993 -117.206 316.772C-133.82 327.008 -147.675 340.005 -161.236 353.135L-161.445 375.763C-159.531 371.951 -156.344 368.68 -153.677 365.259C-151.269 362.169 -149.069 358.956 -146.532 355.944C-145.388 354.586 -144.161 353.269 -142.93 351.954C-138.772 355.787 -133.63 358.711 -128.584 362.352C-119.119 369.183 -110.822 377.11 -102.077 384.602C-98.4305 387.727 -94.3659 390.438 -90.1227 392.909C-82.4062 397.4 -74.9182 402.579 -66.3454 405.716C-57.4213 408.982 -48.8427 412.864 -39.9781 416.23C-37.8353 417.046 -35.612 417.934 -33.3522 418.805C-30.1285 421.555 -26.7051 424.118 -22.9688 426.418C-19.4033 428.611 -15.6785 430.688 -11.9038 432.594C-9.71695 433.699 -6.71599 435.615 -4.03375 435.635C1.04081 435.674 -0.83311 432.189 -2.53807 429.481C-5.94607 424.071 -8.63215 418.275 -12.2149 412.933C-17.8366 404.555 -24.6987 397.46 -31.7105 390.009C-39.3521 381.888 -45.7669 372.868 -52.7768 364.33C-57.1582 358.995 -62.6264 354.314 -67.2786 349.125C-70.3986 345.645 -73.4379 342.01 -77.4603 339.295C-80.7051 337.105 -83.2779 334.419 -86.4133 332.113C-89.491 329.851 -92.9797 329.274 -96.4587 327.669C-100.097 325.989 -104.064 324.25 -107.347 322.075C-107.472 321.992 -107.572 321.925 -107.693 321.844C-105.174 320.27 -102.434 319.098 -99.7438 317.513C-96.6507 315.69 -93.5691 313.788 -90.5182 311.847C-90.3685 313.428 -90.1553 315.162 -89.299 316.306C-87.6689 318.482 -83.0456 320.262 -80.7646 321.836C-70.2757 329.075 -60.5259 337.167 -50.131 344.53C-41.3144 350.775 -32.6264 357.111 -23.3413 362.826C-15.0488 367.931 -5.86735 370.222 3.09521 374.165C9.89777 377.159 15.9304 380.896 22.9768 383.539C28.276 385.528 33.5656 387.543 38.8379 389.587C44.116 391.634 49.467 393.464 54.8354 395.316C57.1854 396.127 60.7893 398.083 63.0011 398.135C62.9742 396.068 59.8024 394.421 58.3182 393.176C51.9918 387.868 45.8248 382.563 38.7784 377.988C31.6686 373.373 25.0984 368.409 19.227 362.579C14.7496 358.134 10.8482 353.498 5.38001 349.927C-2.60911 344.71 -9.08527 338.527 -16.2238 332.596C-18.8427 330.421 -21.6747 328.51 -24.1803 326.234C-26.6322 324.007 -28.5234 323.587 -31.5742 322.337C-34.5944 321.098 -37.1845 319.607 -40.4696 318.803C-43.7086 318.011 -46.3909 316.427 -49.6587 315.777C-53.4699 315.021 -57.3598 315.046 -61.1403 314.131C-64.7403 313.26 -67.9313 312.691 -71.635 312.333C-76.7518 311.84 -81.2408 310.259 -85.9333 308.885C-83.9518 307.586 -81.9838 306.281 -80.0466 304.967C-77.6926 303.371 -75.381 302.597 -72.8946 301.376C-66.8869 298.426 -61.6126 295.358 -55.1307 293.138C-50.8318 291.664 -46.5291 290.201 -42.2322 288.722C-39.1774 295.6 -36.2725 302.549 -33.0661 309.369C-30.3762 315.088 -26.0465 319.199 -22.0357 324.167C-17.9883 329.185 -13.9947 334.426 -8.88943 338.718C-2.49967 344.087 4.86929 348.428 12.0443 352.899C21.6309 358.874 30.1691 365.999 40.996 370.252C52.9845 374.962 64.6907 377.527 77.4914 379.867C81.0299 380.513 89.8254 384.102 92.8341 381.069C92.427 379.942 91.3365 380.052 90.4475 379.307C88.5467 377.72 86.8821 375.882 85.1138 374.15C80.8782 370.003 76.2875 366.226 71.4894 362.581C59.9176 353.792 48.2574 345.127 36.8622 336.16C21.8632 324.359 9.47345 309.443 -7.70479 300.019C-14.3 296.399 -20.6706 292.162 -27.4386 288.842C-29.7118 287.727 -31.6414 286.805 -33.5941 286.363C-32.515 286.366 -31.3976 286.578 -30.0786 287.103C-23.1512 289.854 -16.9861 293.042 -10.6366 296.53C-7.35727 298.332 -3.65167 298.249 -0.376151 300.305C1.73009 301.627 3.40049 303.686 5.47985 304.85C8.21969 306.383 11.1592 307.273 13.8472 309.029C16.253 310.602 18.7547 312.839 21.1989 314.127C26.1947 316.758 30.6818 319.584 36.2382 321.163C40.3355 322.327 45.2162 324.563 48.939 326.362C52.2568 327.965 56.164 328.646 59.5816 330.199C62.5845 331.563 64.4238 332.666 67.7742 333.375C71.0555 334.068 73.9278 335.359 77.1438 336.205C79.899 336.929 82.8559 337.201 85.6859 337.62C89.6431 338.209 92.9608 339.682 96.8008 340.363C109.265 342.573 122.865 343.162 135.577 342.962C138.664 342.913 144.292 343.919 147.08 342.493C148.069 341.986 148.12 340.809 149.305 340.264C147.329 338.876 144.221 338.241 142.007 337.179C137.332 334.937 132.705 332.534 128.202 330.039C115.515 323.008 102.05 316.76 88.6293 310.871C78.9986 306.644 68.6306 304.133 58.6005 300.761C47.5778 297.055 37.8914 291.547 27.3736 286.95C19.5976 283.55 11.4165 281.502 3.47344 278.514C2.452 278.131 1.10225 277.372 -0.291674 276.874C4.09745 276.656 8.29457 275.753 12.9102 276.62C17.7736 277.537 21.6578 277.754 26.5768 277.808C32.308 277.87 37.3538 280.144 42.4955 282.112C52.5736 285.971 62.3368 289.187 72.9218 291.799C79.563 293.437 85.8606 295.388 92.8187 295.617C99.2795 295.829 104.312 295.997 110.579 297.323C121.934 299.726 132.628 297.551 144.148 297.938C157.849 298.399 170.561 299.312 184.151 297.013C191.877 295.706 199.886 294.791 207.543 293.296C209.046 293.001 215.468 291.792 216 290.23C211.828 286.519 205.052 285.656 199.528 284.748C191.127 283.369 183.018 281.555 174.747 279.739C167.873 278.228 161.472 276.444 154.85 274.284C146.968 271.716 138.407 270.982 130.291 269.151C119.027 266.609 109.108 267.238 97.4805 267.913C86.6152 268.542 75.5848 267.141 64.7003 267.003C53.5336 266.862 42.5877 265.439 31.4536 264.754C28.109 264.549 24.6702 264.066 21.4504 264.742C24.411 263.943 27.5253 263.558 30.5512 262.941C38.4155 261.333 46.5275 261.185 54.3534 259.36C59.0862 258.255 63.7864 256.731 68.6882 256.341C71.8139 256.093 74.9551 256.389 78.0712 255.957C84.0271 255.128 88.2798 253.644 94.4642 254.374C102.177 255.288 110.245 254.657 118.074 255.008C125.885 255.358 133.202 254.149 140.876 253.374C146.166 252.84 151.01 252.524 156.2 251.266C159.45 250.477 162.634 250.923 165.969 250.778C172.99 250.472 179.025 246.062 185.054 243.584C187.611 242.533 190.455 242.034 193.016 240.997C195.965 239.807 198.177 237.692 200.715 235.968C205.446 232.756 210.981 231.777 216.234 229.491C218.99 228.293 221.457 226.704 224.302 225.641C226.328 224.884 228.634 224.468 230.608 223.599C232.053 222.963 237.502 220.496 237.389 219.242C233.647 219.496 229.782 220.751 226.057 221.261Z" fill="#ACCEB0"/>
</g>
</g>
<defs>
<clipPath id="clip0_70443_1154">
<rect width="1440" height="841" fill="white"/>
</clipPath>
</defs>
</svg>
