<svg width="22" height="36" viewBox="0 0 22 36" fill="none" xmlns="http://www.w3.org/2000/svg">
<g clip-path="url(#clip0_70463_387)">
<path d="M15.3005 3.85352H4.10521C2.46968 3.85352 1.13848 5.18355 1.13848 6.81571V17.7692H0.848663C0.188553 17.7692 -0.34668 18.3031 -0.34668 18.9627V26.2016C-0.34668 26.8613 0.188553 27.3953 0.848663 27.3953H1.13848V28.7226C1.13848 30.3566 2.46974 31.6848 4.10521 31.6848H19.3807C21.0153 31.6848 22.3466 30.3565 22.3466 28.7226V10.8641L15.3005 3.85352ZM5.36294 24.3576C5.70606 24.3576 6.08647 24.283 6.31066 24.1939L6.48185 25.0799C6.2732 25.1846 5.80307 25.2966 5.19169 25.2966C3.45331 25.2966 2.55808 24.2167 2.55808 22.7865C2.55808 21.0734 3.78169 20.12 5.30339 20.12C5.89285 20.12 6.34026 20.2392 6.54157 20.3429L6.31066 21.2444C6.07918 21.1471 5.75849 21.058 5.35571 21.058C4.45273 21.058 3.75163 21.602 3.75163 22.7192C3.75163 23.7244 4.34843 24.3576 5.36294 24.3576ZM19.3807 29.8707H4.10521C3.47193 29.8707 2.95618 29.3558 2.95618 28.7226V27.3953H17.1961C17.8563 27.3953 18.3916 26.8613 18.3916 26.2016V18.9627C18.3916 18.3031 17.8563 17.7692 17.1961 17.7692H2.95618V6.81571C2.95618 6.18426 3.47193 5.66936 4.10521 5.66936L14.6208 5.65845V9.53944C14.6208 10.673 15.542 11.5937 16.6782 11.5937L20.4858 11.5828L20.5287 28.7226C20.5287 29.3558 20.0139 29.8707 19.3807 29.8707ZM8.48374 23.114C7.64811 22.8238 7.10334 22.3617 7.10334 21.632C7.10334 20.7749 7.81941 20.12 9.00573 20.12C9.57247 20.12 9.99075 20.2391 10.2887 20.3729L10.0353 21.289C9.83402 21.1926 9.47587 21.0506 8.98342 21.0506C8.49097 21.0506 8.25226 21.2745 8.25226 21.5347C8.25226 21.8549 8.5356 21.9969 9.18478 22.2424C10.0727 22.57 10.4904 23.0322 10.4904 23.74C10.4904 24.5814 9.84125 25.2966 8.46131 25.2966C7.88682 25.2966 7.31967 25.1474 7.03633 24.9908L7.2677 24.0528C7.57347 24.2094 8.04361 24.365 8.52831 24.365C9.05042 24.365 9.32648 24.1493 9.32648 23.8217C9.32654 23.5088 9.08783 23.3296 8.48374 23.114ZM12.5142 23.114C11.6787 22.8238 11.1338 22.3617 11.1338 21.632C11.1338 20.7749 11.85 20.12 13.0362 20.12C13.6035 20.12 14.0207 20.2391 14.3196 20.3729L14.0659 21.289C13.8645 21.1926 13.5065 21.0506 13.014 21.0506C12.5215 21.0506 12.2828 21.2745 12.2828 21.5347C12.2828 21.8549 12.5661 21.9969 13.2154 22.2424C14.1033 22.57 14.5212 23.0322 14.5212 23.74C14.5212 24.5814 13.872 25.2966 12.492 25.2966C11.9174 25.2966 11.3502 25.1474 11.0669 24.9908L11.2984 24.0528C11.604 24.2094 12.0742 24.365 12.5589 24.365C13.081 24.365 13.3571 24.1493 13.3571 23.8217C13.357 23.5088 13.1183 23.3296 12.5142 23.114Z" fill="#74B88B"/>
</g>
<defs>
<clipPath id="clip0_70463_387">
<rect width="22" height="35.5385" fill="white"/>
</clipPath>
</defs>
</svg>
