<svg width="33" height="32" viewBox="0 0 33 32" fill="none" xmlns="http://www.w3.org/2000/svg">
<path d="M8.5 8C8.5 6.93913 8.92143 5.92172 9.67157 5.17157C10.4217 4.42143 11.4391 4 12.5 4H16.5V12H12.5C11.4391 12 10.4217 11.5786 9.67157 10.8284C8.92143 10.0783 8.5 9.06087 8.5 8ZM16.5 4H20.5C21.5609 4 22.5783 4.42143 23.3284 5.17157C24.0786 5.92172 24.5 6.93913 24.5 8C24.5 9.06087 24.0786 10.0783 23.3284 10.8284C22.5783 11.5786 21.5609 12 20.5 12H16.5V4Z" fill="#74B88B"/>
<path d="M16.5 16C16.5 14.9391 16.9214 13.9217 17.6716 13.1716C18.4217 12.4214 19.4391 12 20.5 12C21.5609 12 22.5783 12.4214 23.3284 13.1716C24.0786 13.9217 24.5 14.9391 24.5 16C24.5 17.0609 24.0786 18.0783 23.3284 18.8284C22.5783 19.5786 21.5609 20 20.5 20C19.4391 20 18.4217 19.5786 17.6716 18.8284C16.9214 18.0783 16.5 17.0609 16.5 16ZM8.5 24C8.5 22.9391 8.92143 21.9217 9.67157 21.1716C10.4217 20.4214 11.4391 20 12.5 20H16.5V24C16.5 25.0609 16.0786 26.0783 15.3284 26.8284C14.5783 27.5786 13.5609 28 12.5 28C11.4391 28 10.4217 27.5786 9.67157 26.8284C8.92143 26.0783 8.5 25.0609 8.5 24ZM8.5 16C8.5 14.9391 8.92143 13.9217 9.67157 13.1716C10.4217 12.4214 11.4391 12 12.5 12H16.5V20H12.5C11.4391 20 10.4217 19.5786 9.67157 18.8284C8.92143 18.0783 8.5 17.0609 8.5 16Z" fill="#74B88B"/>
</svg>
