<svg width="29" height="28" viewBox="0 0 29 28" fill="none" xmlns="http://www.w3.org/2000/svg">
<path d="M25.5 0C27.125 0 28.5 1.375 28.5 3V25C28.5 26.6875 27.125 28 25.5 28H3.5C1.8125 28 0.5 26.6875 0.5 25V3C0.5 1.375 1.8125 0 3.5 0H25.5ZM15.6875 21.875V12.875H13.0625V21.8125C13.0625 23.125 12.5 23.5 11.6875 23.5C10.75 23.5 10.375 22.875 10 22.125L7.8125 23.4375C8.4375 24.75 9.6875 25.8125 11.75 25.8125C14.125 25.8125 15.6875 24.5625 15.6875 21.875ZM21.9375 25.8125C24.4375 25.8125 26.3125 24.5625 26.3125 22.1875C26.3125 20 25.0625 19 22.8125 18.0625L22.125 17.75C21 17.25 20.5 16.9375 20.5 16.125C20.5 15.5 21 15 21.75 15C22.5625 15 23 15.375 23.5 16.125L25.5 14.8125C24.6875 13.3125 23.4375 12.75 21.8125 12.75C19.4375 12.75 17.9375 14.25 17.9375 16.1875C17.9375 18.375 19.1875 19.375 21.0625 20.1875L21.75 20.4375C22.9375 21 23.6875 21.3125 23.6875 22.1875C23.6875 22.9375 22.9375 23.5 21.875 23.5C20.5625 23.5 19.875 22.8125 19.3125 21.9375L17.125 23.125C17.9375 24.6875 19.5 25.8125 21.9375 25.8125Z" fill="#74B88B"/>
</svg>
