<svg width="41" height="26" viewBox="0 0 41 26" fill="none" xmlns="http://www.w3.org/2000/svg">
<path d="M20.25 25.25C20.125 25.25 20 25.25 19.875 25.1875L18.6875 24.4375C18.5 24.375 18.5625 24.3125 18.625 24.3125C18.875 24.25 18.9375 24.1875 19.1875 24.0625H19.25L20.1875 24.625C20.1875 24.625 20.25 24.625 20.3125 24.625L23.9375 22.5C23.9375 22.5 23.9375 22.5 23.9375 22.4375V18.25C23.9375 18.1875 23.9375 18.1875 23.9375 18.1875L20.3125 16.0625C20.25 16.0625 20.25 16.0625 20.1875 16.0625L16.5625 18.1875L16.5 18.25V22.4375L16.5625 22.5L17.5625 23.0625C18.125 23.375 18.4375 23.0625 18.4375 22.75V18.625C18.4375 18.5625 18.5 18.5 18.5625 18.5H19C19.0625 18.5 19.125 18.5625 19.125 18.625V22.75C19.125 23.4375 18.6875 23.875 18 23.875C17.8125 23.875 17.625 23.875 17.1875 23.625L16.25 23.0625C16 22.9375 15.875 22.6875 15.875 22.4375V18.25C15.875 18 16 17.75 16.25 17.625L19.875 15.5C20.0625 15.375 20.375 15.375 20.625 15.5L24.25 17.625C24.4375 17.75 24.625 18 24.625 18.25V22.4375C24.625 22.6875 24.4375 22.9375 24.25 23.0625L20.625 25.1875C20.5 25.25 20.375 25.25 20.25 25.25ZM23.1875 21.1875C23.1875 21.9375 22.5 22.375 21.375 22.375C19.75 22.375 19.4375 21.6875 19.4375 21.0625C19.4375 21 19.5 20.9375 19.5625 20.9375H20C20.0625 20.9375 20.125 21 20.125 21.0625C20.1875 21.5 20.375 21.75 21.375 21.75C22.125 21.75 22.4375 21.625 22.4375 21.1875C22.4375 20.9375 22.375 20.8125 21.1875 20.6875C20.1875 20.5625 19.5625 20.375 19.5625 19.5625C19.5625 18.8125 20.1875 18.375 21.1875 18.375C22.375 18.375 22.9375 18.8125 23 19.6875V19.75C22.9375 19.75 22.9375 19.75 22.9375 19.75H22.4375C22.375 19.75 22.375 19.75 22.3125 19.6875C22.25 19.1875 21.9375 19.0625 21.1875 19.0625C20.375 19.0625 20.3125 19.3125 20.3125 19.5625C20.3125 19.8125 20.375 19.875 21.5 20C22.625 20.1875 23.1875 20.375 23.1875 21.1875ZM26.5625 18.0625C26.5625 18.4375 26.25 18.75 25.875 18.75C25.5 18.75 25.1875 18.4375 25.1875 18.0625C25.1875 17.625 25.5 17.3125 25.875 17.3125C26.25 17.3125 26.5625 17.625 26.5625 18.0625ZM26.4375 18.0625C26.4375 17.6875 26.1875 17.4375 25.875 17.4375C25.5625 17.4375 25.3125 17.6875 25.3125 18.0625C25.3125 18.375 25.5625 18.625 25.875 18.625C26.1875 18.625 26.4375 18.375 26.4375 18.0625ZM26.1875 18.4375H26C26 18.375 26 18.1875 26 18.1875C25.9375 18.125 25.9375 18.125 25.875 18.125H25.75V18.4375H25.625V17.625H25.875C26 17.625 26.125 17.625 26.125 17.875C26.125 18 26.0625 18 26 18.0625C26.125 18.0625 26.125 18.125 26.125 18.1875C26.125 18.25 26.125 18.375 26.1875 18.4375ZM26 17.875C26 17.75 25.9375 17.75 25.875 17.75H25.75V18H25.875C26 18 26 17.9375 26 17.875ZM9.0625 8.9375V14.875C9.0625 15 9 15.0625 8.9375 15.125C8.875 15.125 8.75 15.125 8.6875 15.125L6.4375 13.8125C6.25 13.6875 6.1875 13.5625 6.1875 13.375V10.625C6.1875 10.4375 6.125 10.3125 5.9375 10.25L5 9.6875C4.9375 9.625 4.8125 9.625 4.75 9.625C4.6875 9.625 4.625 9.625 4.5 9.6875L3.5625 10.25C3.4375 10.3125 3.3125 10.4375 3.3125 10.625V13.375C3.3125 13.5625 3.25 13.6875 3.125 13.8125L0.8125 15.125C0.75 15.125 0.6875 15.125 0.5625 15.125C0.5 15.0625 0.5 15 0.5 14.875V8.9375C0.5 8.8125 0.5625 8.625 0.6875 8.5625L4.5 6.375C4.625 6.3125 4.6875 6.3125 4.75 6.3125C4.875 6.3125 4.9375 6.3125 5 6.375L8.8125 8.5625C8.9375 8.625 9.0625 8.8125 9.0625 8.9375ZM30 2.5V13.5C30 13.6875 29.9375 13.8125 29.75 13.9375L25.9375 16.125C25.8125 16.1875 25.625 16.1875 25.5 16.125L21.625 13.9375C21.5 13.8125 21.4375 13.6875 21.4375 13.5V9.0625C21.4375 8.9375 21.5 8.75 21.625 8.6875L25.5 6.5C25.625 6.375 25.8125 6.375 25.9375 6.5L26.875 7C27 7.0625 27.125 7 27.125 6.875V1C27.125 0.8125 27.3125 0.75 27.5 0.8125L29.75 2.0625C29.9375 2.1875 30 2.3125 30 2.5ZM27.125 10.5625C27.125 10.5 27.125 10.4375 27.0625 10.4375L25.75 9.6875C25.75 9.6875 25.6875 9.6875 25.625 9.6875L24.3125 10.4375C24.3125 10.4375 24.25 10.5 24.25 10.5625V12.0625C24.25 12.125 24.3125 12.125 24.3125 12.1875L25.625 12.9375C25.6875 12.9375 25.75 12.9375 25.75 12.9375L27.0625 12.1875C27.125 12.125 27.125 12.125 27.125 12.0625V10.5625ZM40.25 10.5L37.9375 11.8125C37.8125 11.9375 37.625 11.8125 37.625 11.625V10.5625C37.625 10.4375 37.5625 10.375 37.5 10.3125L36.25 9.625C36.1875 9.625 36.125 9.625 36.0625 9.625L34.875 10.3125C34.75 10.375 34.75 10.4375 34.75 10.5625V11.9375C34.75 12 34.75 12.0625 34.875 12.125L38.6875 14.3125C38.875 14.4375 38.875 14.625 38.6875 14.75L36.375 16C36.25 16.125 36.0625 16.125 35.9375 16L32.125 13.875C32 13.75 31.9375 13.625 31.9375 13.4375V9C31.9375 8.875 32 8.6875 32.125 8.625L36 6.4375C36.125 6.3125 36.3125 6.3125 36.4375 6.4375L40.25 8.625C40.375 8.6875 40.5 8.875 40.5 9V10.125C40.5 10.25 40.375 10.4375 40.25 10.5ZM35.4375 10.6875L36.125 10.3125C36.1875 10.25 36.1875 10.25 36.25 10.3125L37 10.6875C37 10.75 37 10.75 37 10.8125V11.625C37 11.6875 37 11.6875 37 11.6875L36.25 12.125C36.1875 12.1875 36.1875 12.1875 36.125 12.125L35.4375 11.6875C35.375 11.6875 35.375 11.6875 35.375 11.625V10.8125C35.375 10.75 35.375 10.75 35.4375 10.6875ZM19.5 13.4375C19.5 13.5 19.5 13.5 19.5 13.5625C19.5 13.6875 19.375 13.75 19.3125 13.8125L15.5 16.0625C15.3125 16.125 15.1875 16.125 15 16.0625L11.1875 13.8125C11.0625 13.75 10.9375 13.625 10.9375 13.4375V9.0625C10.9375 8.875 11.0625 8.6875 11.1875 8.625L15 6.4375C15.125 6.375 15.3125 6.375 15.4375 6.4375L19.25 8.625C19.4375 8.6875 19.5 8.875 19.5 9.0625V13.4375ZM14.875 5.625L14.8125 5.6875H14.875V5.625Z" fill="#74B88B"/>
</svg>
