<svg width="80" height="89" viewBox="0 0 80 89" fill="none" xmlns="http://www.w3.org/2000/svg">
<mask id="mask0_70406_222" style="mask-type:alpha" maskUnits="userSpaceOnUse" x="0" y="0" width="80" height="89">
<path d="M44.0496 0L79.2921 64.8989L35.2425 88.8195L-6.00008e-05 23.9206L44.0496 0Z" fill="white"/>
</mask>
<g mask="url(#mask0_70406_222)">
<path fill-rule="evenodd" clip-rule="evenodd" d="M18.8062 20.4565C18.1802 21.9825 17.6804 23.5596 17.1506 25.1239C17.5593 23.2549 17.8601 21.2615 17.7131 19.4167C17.5568 17.4527 17.8334 15.5863 17.4969 13.6104C17.2904 12.3991 16.6405 11.3949 16.1086 10.3297C17.1893 10.6126 18.2616 10.9396 19.3114 11.2743C20.4235 11.6289 21.4943 12.0928 22.5876 12.4953C20.9591 14.9338 19.9273 17.7228 18.8062 20.4565ZM77.7549 63.0477C76.5526 61.4624 75.5171 59.7628 74.2972 58.1875C71.8267 54.9984 69.4068 51.7464 66.8387 48.6354C65.6624 47.2107 64.4366 45.8138 63.2996 44.3568C61.9872 42.6756 60.9809 40.8145 59.588 39.1907C56.8957 36.052 53.9371 33.1731 50.8703 30.4126C48.5077 28.2858 46.0657 26.169 43.5606 24.2157C40.8265 22.0842 37.8208 20.4209 35.0319 18.3705C33.7385 17.419 32.6039 16.2793 31.3544 15.274C29.1757 13.5211 26.6635 12.0341 24.19 10.7695C20.4547 8.85984 16.4318 7.76036 12.411 6.72935L7.78402 9.19239C8.75017 9.12147 9.73295 9.34327 10.6945 9.45327C11.5628 9.55245 12.4355 9.6001 13.3008 9.73138C13.6909 9.79081 14.081 9.86981 14.471 9.9497C14.1041 11.1347 14.0202 12.3991 13.7805 13.7253C13.331 16.2131 12.542 18.6081 11.8863 21.0371C11.6126 22.05 11.4647 23.0938 11.3835 24.1437C11.2364 26.0527 10.9265 27.9959 11.1401 29.9119C11.3623 31.9066 11.4248 33.9061 11.6209 35.9009C11.6679 36.3833 11.7081 36.8885 11.7554 37.3985C11.516 38.2926 11.3345 39.2026 11.2379 40.1407C11.1458 41.0359 11.0932 41.9473 11.0805 42.849C11.073 43.3714 10.9813 44.1326 11.2437 44.6258C11.7404 45.559 12.2635 44.8307 12.6453 44.2193C13.4077 42.9974 14.3205 41.865 15.0518 40.6187C16.1985 38.6634 16.9605 36.623 17.7803 34.5158C18.6738 32.2193 19.8724 30.0479 20.9135 27.8209C21.5641 26.4291 21.9734 24.9106 22.5672 23.4854C22.9655 22.5296 23.4032 21.5714 23.556 20.535C23.6793 19.699 23.9703 18.9311 24.1281 18.1022C24.2826 17.2887 24.0533 16.5863 24.0341 15.7721C24.0145 14.9203 23.9742 14.0019 24.0905 13.1605C24.0949 13.1286 24.0987 13.1029 24.1031 13.0718C24.674 13.3589 25.185 13.7308 25.7749 14.0481C26.4535 14.4127 27.1471 14.7666 27.8455 15.1105C27.5385 15.3127 27.2067 15.5434 27.059 15.8266C26.778 16.3655 26.8753 17.4086 26.7816 18.0002C26.3506 20.7205 25.6725 23.3997 25.2072 26.1164C24.8123 28.4207 24.3861 30.7115 24.1457 33.043C23.9309 35.1253 24.3772 37.0592 24.4656 39.1357C24.5323 40.7119 24.3712 42.2294 24.5338 43.8113C24.6555 45.0013 24.7711 46.1924 24.8792 47.3834C24.9872 48.5759 25.1466 49.7577 25.3032 50.9451C25.3718 51.4649 25.3319 52.3409 25.5411 52.7515C25.9593 52.5181 25.9792 51.7554 26.085 51.3462C26.5367 49.6013 27.0036 47.8859 27.2344 46.0903C27.4672 44.2786 27.8245 42.5272 28.4276 40.808C28.8874 39.497 29.4432 38.2704 29.6266 36.8747C29.8945 34.8354 30.5094 32.9665 31.007 31.0041C31.1894 30.2843 31.2969 29.5547 31.511 28.8444C31.7206 28.1494 31.6183 27.7568 31.5694 27.0601C31.5215 26.3703 31.5674 25.7314 31.4045 25.0412C31.2438 24.3607 31.2997 23.6945 31.107 23.0245C30.8822 22.2432 30.4904 21.5339 30.3009 20.7407C30.1204 19.9854 29.9189 19.3385 29.6236 18.6209C29.2153 17.6297 29.0909 16.6332 28.9042 15.6223C29.3655 15.8415 29.8268 16.0575 30.2868 16.2669C30.8458 16.5213 31.2331 16.859 31.7288 17.1791C32.9265 17.9528 34.0754 18.5791 35.1717 19.5202C35.8989 20.1443 36.6245 20.7701 37.3526 21.3933C36.2563 22.7128 35.1306 24.0126 34.0609 25.3535C33.1642 26.4781 32.7578 27.7251 32.145 29.0085C31.526 30.304 30.8561 31.6145 30.4898 33.0235C30.0321 34.7867 29.8809 36.6155 29.684 38.4231C29.4208 40.8384 28.8192 43.189 29.0295 45.6412C29.2626 48.3563 29.9041 50.7828 30.7003 53.3846C30.9205 54.1038 31.0642 56.1106 31.9806 56.3261C32.1696 56.1271 32.0389 55.9395 32.1022 55.6944C32.2361 55.1711 32.4449 54.6632 32.6218 54.148C33.0447 52.9143 33.3574 51.6563 33.6224 50.3751C34.2611 47.2853 34.866 44.193 35.5586 41.1158C36.4698 37.0656 38.2745 33.1488 38.4854 28.9624C38.5666 27.355 38.7958 25.7205 38.7989 24.1145C38.7999 23.5751 38.7957 23.12 38.6917 22.7137C38.7983 22.9116 38.8662 23.1396 38.8905 23.439C39.019 25.0113 38.983 26.4922 38.904 28.0401C38.8633 28.8396 39.2485 29.5088 39.1557 30.3356C39.0959 30.8673 38.8429 31.4006 38.8126 31.91C38.7727 32.5811 38.8838 33.2175 38.7936 33.9037C38.7126 34.5179 38.5059 35.2232 38.4866 35.813C38.4477 37.0183 38.3185 38.1521 38.5493 39.3438C38.7197 40.2225 38.7498 41.363 38.7535 42.2435C38.757 43.028 39.0068 43.8185 39.0305 44.6158C39.0513 45.3162 39.0095 45.7749 39.1984 46.4665C39.3835 47.1438 39.4061 47.8124 39.5536 48.4946C39.6802 49.0789 39.9187 49.6503 40.1148 50.2146C40.3883 51.0041 40.4181 51.7743 40.6612 52.5525C41.4503 55.0786 42.6824 57.6331 43.9868 59.938C44.3036 60.4978 44.6583 61.6391 45.2258 61.9918C45.4271 62.1168 45.6719 61.9961 45.9006 62.1527C45.9867 61.6377 45.8071 60.9984 45.8031 60.4758C45.7948 59.3722 45.8241 58.2594 45.8843 57.1595C46.0543 54.0598 45.9878 50.9042 45.8524 47.7965C45.7555 45.5663 45.236 43.3908 44.9255 41.182C44.5841 38.7546 44.7425 36.3725 44.6327 33.939C44.5517 32.1398 44.1555 30.4158 43.974 28.6315C43.9506 28.4022 43.9708 28.0712 43.9336 27.761C44.4144 28.5403 45.0155 29.2088 45.2976 30.1496C45.5945 31.1412 45.9364 31.8762 46.4145 32.7826C46.9715 33.8386 47.0102 35.0137 47.1207 36.1724C47.3371 38.4438 47.6529 40.5865 48.1734 42.8129C48.5001 44.2097 48.7289 45.5782 49.374 46.8772C49.9731 48.0833 50.4391 49.0231 50.7923 50.3168C51.4318 52.6611 52.9376 54.3783 54.004 56.5299C55.2721 59.0889 56.3499 61.5169 58.1688 63.7504C59.2029 65.0203 60.1852 66.3851 61.2508 67.6214C61.4601 67.8641 62.3447 68.9061 62.7157 68.8307C63.0563 67.6568 62.5584 66.3211 62.1942 65.2095C61.6397 63.519 61.2028 61.8344 60.7504 60.1194C60.3746 58.6942 60.1015 57.3252 59.8829 55.8742C59.6223 54.1475 58.9205 52.4993 58.4866 50.8111C57.8842 48.4681 56.7701 46.722 55.477 44.6681C54.2689 42.7487 53.4576 40.5746 52.4037 38.5669C51.3224 36.5072 50.524 34.3462 49.5565 32.2323C49.2658 31.5974 49.0223 30.9146 48.5646 30.3999C49.0215 30.8535 49.4095 31.381 49.8359 31.8667C50.945 33.1286 51.7815 34.5971 52.931 35.828C53.6264 36.5722 54.4038 37.2641 54.9705 38.1183C55.3316 38.6631 55.5836 39.2709 55.9813 39.7935C56.7422 40.7921 57.4669 41.4066 57.9331 42.6194C58.5138 44.1322 59.4442 45.5393 60.151 47.0114C60.8562 48.4799 61.8297 49.6856 62.7505 51.0047C63.3848 51.9141 63.9307 52.7659 64.7027 53.5768C65.1864 54.0846 65.4121 54.7166 65.7731 55.3111C66.5334 56.5626 68.031 57.1798 69.1347 58.0095C69.6029 58.3614 69.9872 58.8267 70.4528 59.1811C70.9883 59.5893 71.6386 59.7604 72.2419 60.0345C73.3661 60.5454 74.1156 61.4504 75.1031 62.1594C75.6208 62.5313 76.1896 62.8073 76.6889 63.2106C77.0443 63.4978 77.3581 63.8739 77.7313 64.1391C78.0045 64.3335 79.0484 65.0582 79.2922 64.8989C78.8685 64.242 78.2289 63.6732 77.7549 63.0477Z" fill="#94B38B"/>
</g>
</svg>
