<svg width="33" height="30" viewBox="0 0 33 30" fill="none" xmlns="http://www.w3.org/2000/svg">
<path d="M26.625 10.125C30 11.25 32.5 13.125 32.5 15C32.5 17 29.875 18.9375 26.25 20.125C26.0625 20.1875 25.875 20.25 25.6875 20.3125C25.75 20.5625 25.8125 20.875 25.875 21.125C26.5625 24.75 26 27.6875 24.3125 28.6875C22.6875 29.625 20.0625 28.6875 17.375 26.375C17.0625 26.125 16.8125 25.875 16.5 25.625C16.3125 25.8125 16.0625 26 15.875 26.1875C13.125 28.625 10.25 29.625 8.5625 28.625C6.9375 27.6875 6.4375 24.9375 7.0625 21.5C7.1875 21.125 7.25 20.75 7.3125 20.375C7.0625 20.3125 6.75 20.1875 6.5 20.125C3 18.9375 0.5 16.9375 0.5 15C0.5 13.125 2.875 11.3125 6.1875 10.125C6.5625 10 6.9375 9.875 7.375 9.75C7.25 9.4375 7.1875 9.0625 7.125 8.75C6.4375 5.1875 6.9375 2.375 8.5625 1.4375C10.25 0.4375 13.125 1.5 16 4C16.125 4.1875 16.3125 4.3125 16.5 4.5C16.75 4.25 17 4 17.25 3.8125C20 1.4375 22.6875 0.4375 24.3125 1.375C26 2.375 26.5 5.375 25.75 9.0625C25.6875 9.3125 25.625 9.5625 25.625 9.8125C25.9375 9.875 26.25 10 26.625 10.125ZM18.125 4.8125C17.875 5 17.6875 5.25 17.4375 5.4375C18.375 6.5 19.25 7.625 20.0625 8.8125C21.5 8.9375 22.875 9.125 24.3125 9.4375C24.375 9.25 24.375 9.0625 24.4375 8.8125C25.125 5.625 24.6875 3.125 23.625 2.5625C22.625 2 20.5 2.75 18.125 4.8125ZM10.9375 18.25C10.625 17.6875 10.3125 17.1875 10 16.625C9.625 17.5625 9.3125 18.5 9 19.375C9.9375 19.625 10.9375 19.75 11.9375 19.875C11.5625 19.3125 11.25 18.8125 10.9375 18.25ZM9 10.75C9.3125 11.625 9.625 12.5 10 13.4375C10.3125 12.875 10.625 12.375 10.9375 11.8125C11.25 11.3125 11.5625 10.75 11.875 10.25C10.875 10.375 9.9375 10.5 9 10.75ZM10.75 15.0625C11.1875 15.875 11.625 16.75 12.0625 17.5625C12.5625 18.375 13.0625 19.1875 13.625 20C14.5625 20.0625 15.5 20.125 16.5 20.125C17.4375 20.125 18.4375 20.0625 19.375 20C19.875 19.1875 20.375 18.375 20.875 17.5625C21.375 16.75 21.8125 15.875 22.1875 15C21.8125 14.125 21.3125 13.3125 20.875 12.5C20.375 11.6875 19.875 10.875 19.3125 10.0625C18.4375 10 17.4375 9.9375 16.5 9.9375C15.5 9.9375 14.5625 10 13.625 10.0625C13.0625 10.875 12.5625 11.6875 12.0625 12.5C11.625 13.3125 11.125 14.1875 10.75 15.0625ZM22 18.25C21.6875 18.75 21.375 19.3125 21.0625 19.8125C22.0625 19.75 23 19.5625 24 19.3125C23.6875 18.375 23.3125 17.5 22.9375 16.5625C22.625 17.125 22.375 17.6875 22 18.25ZM22.9375 13.4375C23.3125 12.5625 23.625 11.6875 23.9375 10.75C23.0625 10.5625 22.0625 10.375 21.0625 10.25C21.375 10.75 21.6875 11.3125 22 11.8125C22.3125 12.375 22.625 12.875 22.9375 13.4375ZM16.5 6.4375C15.875 7.125 15.25 7.875 14.625 8.6875C15.875 8.625 17.125 8.625 18.3125 8.6875C17.75 7.875 17.125 7.125 16.5 6.4375ZM9.25 2.5625C8.25 3.1875 7.875 5.4375 8.4375 8.4375C8.5 8.8125 8.5625 9.125 8.6875 9.4375C10.0625 9.125 11.4375 8.9375 12.875 8.8125C13.6875 7.625 14.5625 6.5 15.5625 5.4375C15.375 5.3125 15.25 5.1875 15.0625 5C12.625 2.875 10.3125 2 9.25 2.5625ZM7.6875 19.0625C8.125 17.6875 8.625 16.3125 9.25 15.0625C8.6875 13.75 8.125 12.4375 7.75 11.0625C7.375 11.1875 7 11.25 6.625 11.375C3.8125 12.375 1.8125 13.875 1.8125 15C1.9375 15.75 2.375 16.4375 3 16.875C4.0625 17.75 5.625 18.375 6.9375 18.8125C7.1875 18.9375 7.4375 19 7.6875 19.0625ZM15 25.1875C15.1875 25 15.375 24.8125 15.5625 24.625C14.625 23.5625 13.6875 22.4375 12.875 21.3125C11.4375 21.1875 10.0625 21 8.625 20.6875C8.5625 21 8.5 21.375 8.4375 21.75C7.875 24.6875 8.25 26.875 9.25 27.5C10 27.75 10.75 27.75 11.4375 27.375C12.75 26.875 13.9375 26.125 15 25.1875ZM16.5 23.6875C17.1875 22.9375 17.8125 22.1875 18.375 21.375C17.75 21.4375 17.125 21.4375 16.5 21.4375C15.875 21.4375 15.25 21.4375 14.625 21.375C15.25 22.25 15.875 23 16.5 23.6875ZM24.6875 25.5625C24.875 24.1875 24.8125 22.75 24.5625 21.375C24.5 21.125 24.4375 20.875 24.375 20.625C22.9375 20.9375 21.5625 21.1875 20.125 21.3125C19.3125 22.5 18.4375 23.5625 17.4375 24.625C17.75 24.875 18 25.125 18.25 25.375C20.5625 27.3125 22.6875 28.0625 23.6875 27.5C24.25 27 24.625 26.3125 24.6875 25.5625ZM25.8125 18.8125C28.9375 17.8125 31.125 16.1875 31.125 15C31.125 13.875 29.0625 12.375 26.1875 11.375C25.875 11.25 25.5625 11.1875 25.25 11.0625C24.8125 12.4375 24.3125 13.75 23.6875 15C24.3125 16.3125 24.875 17.625 25.3125 19C25.5 18.9375 25.625 18.875 25.8125 18.8125ZM16.5 17.875C14.875 17.875 13.625 16.625 13.625 15C13.625 13.4375 14.875 12.1875 16.5 12.1875C18.0625 12.1875 19.3125 13.4375 19.3125 15C19.3125 16.625 18.0625 17.875 16.5 17.875Z" fill="#74B88B"/>
</svg>
